<svg width="27" height="27" viewBox="0 0 27 27" fill="none" xmlns="http://www.w3.org/2000/svg">
<g clip-path="url(#clip0_56_1332)">
<path d="M15.9793 6.17334H10.9871C9.83935 6.17334 8.90332 7.10937 8.90332 8.26826V10.6752C8.90332 10.9872 9.15961 11.2324 9.46048 11.2324H17.4947C17.8067 11.2324 18.0519 10.9761 18.0519 10.6752V8.26826C18.0519 7.12051 17.1159 6.17334 15.9681 6.17334H15.9793Z" fill="#CC2127"/>
<path d="M26.3984 8.42432H19.6568C19.3448 8.42432 19.0996 8.68061 19.0996 8.98148C19.0996 9.28234 19.3559 9.53864 19.6568 9.53864H25.8301V15.1548C25.8301 15.4668 26.0864 15.712 26.3873 15.712C26.6881 15.712 26.9444 15.4557 26.9444 15.1548V8.98148C26.9444 8.66947 26.6881 8.42432 26.3873 8.42432H26.3984Z" fill="#CC2127"/>
<path d="M13.4834 5.61618C15.0651 5.61618 16.3472 4.35895 16.3472 2.80809C16.3472 1.25722 15.0651 0 13.4834 0C11.9018 0 10.6196 1.25722 10.6196 2.80809C10.6196 4.35895 11.9018 5.61618 13.4834 5.61618Z" fill="#CC2127"/>
<path d="M0.557161 15.723C0.86917 15.723 1.11432 15.4667 1.11432 15.1658V9.54962H7.28766C7.59967 9.54962 7.84482 9.29333 7.84482 8.99246C7.84482 8.6916 7.58853 8.4353 7.28766 8.4353H0.557161C0.245151 8.4353 0 8.6916 0 8.99246V15.1658C0 15.4778 0.256294 15.723 0.557161 15.723Z" fill="#CC2127"/>
<path d="M24.7711 21.8741L19.779 21.9298C19.3667 21.9298 18.9878 22.0636 18.6758 22.2753C18.9878 22.7656 19.1772 23.3562 19.1772 23.9913V26.3983C19.1772 26.61 19.1327 26.8106 19.0547 27L26.3423 26.9109C26.6543 26.9109 26.8995 26.6546 26.8995 26.3426L26.866 23.9356C26.8549 22.7879 25.9077 21.863 24.76 21.8741H24.7711Z" fill="#CC2127"/>
<path d="M22.2752 21.3391C23.8464 21.3168 25.1168 20.0465 25.1056 18.4976C25.0945 16.9487 23.7907 15.7007 22.2084 15.723C20.6372 15.7452 19.3669 17.0156 19.378 18.5645C19.4003 20.1245 20.6929 21.3614 22.2752 21.3391Z" fill="#CC2127"/>
<path d="M15.9793 21.9075H10.9871C9.83935 21.9075 8.90332 22.8435 8.90332 24.0024V26.4093C8.90332 26.7213 9.15961 26.9665 9.46048 26.9665H17.4947C17.8067 26.9665 18.0519 26.7102 18.0519 26.4093V24.0024C18.0519 22.8546 17.1159 21.9075 15.9681 21.9075H15.9793Z" fill="#CC2127"/>
<path d="M13.4834 21.3393C15.0651 21.3393 16.3472 20.0821 16.3472 18.5312C16.3472 16.9804 15.0651 15.7231 13.4834 15.7231C11.9018 15.7231 10.6196 16.9804 10.6196 18.5312C10.6196 20.0821 11.9018 21.3393 13.4834 21.3393Z" fill="#CC2127"/>
<path d="M8.26826 22.2975C7.93397 22.0523 7.51052 21.9075 7.0648 21.9075H2.08378C0.93603 21.9075 0 22.8435 0 24.0024V26.4093C0 26.7213 0.256294 26.9665 0.557161 26.9665H7.87825C7.81139 26.7882 7.77796 26.5988 7.77796 26.4093V24.0024C7.77796 23.3784 7.95625 22.7989 8.26826 22.2975Z" fill="#CC2127"/>
</g>
<defs>
<clipPath id="clip0_56_1332">
<rect width="26.9554" height="27" fill="white"/>
</clipPath>
</defs>
</svg>
