<svg width="61" height="60" viewBox="0 0 61 60" fill="none" xmlns="http://www.w3.org/2000/svg">
<g clip-path="url(#clip0_56_458)">
<path fill-rule="evenodd" clip-rule="evenodd" d="M50.5911 27.6082C54.0934 31.4863 56.7073 34.869 58.4328 37.8929C64.7369 48.9636 55.7677 60.205 43.7574 60C31.7472 60.205 22.7779 48.9636 29.082 37.8929C30.8075 34.869 33.4214 31.5034 36.9237 27.6082C37.3337 27.7449 37.795 27.8132 38.2563 27.8132H49.2756C49.7369 27.8132 50.1811 27.7449 50.6082 27.6082H50.5911ZM6.00114 0C2.97722 0 0.5 2.47722 0.5 5.50114V45.7005C0.5 48.7244 2.97722 51.2016 6.00114 51.2016H26.2631C24.2813 46.4692 24.8793 41.361 27.4077 36.9191C27.9203 36.0137 28.4841 35.1253 29.0991 34.2369C28.7574 34.0148 28.5182 33.6219 28.5182 33.1777V31.5376C28.5182 30.8371 29.082 30.2733 29.7825 30.2733H32.0718C33.0968 29.0091 34.156 27.779 35.2323 26.6002C34.9248 26.3098 34.6515 25.951 34.4294 25.5752H29.7825C29.082 25.5752 28.5182 25.0114 28.5182 24.3109V22.6708C28.5182 21.9704 29.082 21.4066 29.7825 21.4066H34.344C34.7369 20.6378 35.3519 20.0057 36.0866 19.5786L34.7711 18.2631C33.9681 17.4601 33.541 16.4351 33.4727 15.3759H7.82916C7.1287 15.3759 6.56492 14.8121 6.56492 14.1116V9.15718C6.56492 8.45672 7.1287 7.89294 7.82916 7.89294H35.6424C36.3428 7.89294 36.9066 8.45672 36.9066 9.15718V10.746C37.795 10.541 38.7517 10.6093 39.623 10.9681C40.2039 9.5672 41.4852 8.54214 42.9886 8.28588V5.50114C42.9886 2.47722 40.5114 0 37.4875 0L6.00114 0ZM38.2392 25.8827C36.8724 25.8827 35.762 24.7722 35.762 23.4055C35.762 22.0387 36.8724 20.9282 38.2392 20.9282H49.2585C50.6082 20.9282 51.7358 22.0387 51.7358 23.4055C51.7358 24.7722 50.6253 25.8827 49.2585 25.8827H38.2392ZM8.99089 21.4066H13.7232C14.4237 21.4066 14.9875 21.9704 14.9875 22.6708V24.3109C14.9875 25.0114 14.4237 25.5752 13.7232 25.5752H8.99089C8.29043 25.5752 7.72665 25.0114 7.72665 24.3109V22.6708C7.72665 21.9704 8.29043 21.4066 8.99089 21.4066ZM19.3781 39.1401C18.6777 39.1401 18.1139 39.7039 18.1139 40.4043V42.0444C18.1139 42.7449 18.6777 43.3087 19.3781 43.3087H24.1105C24.8109 43.3087 25.3747 42.7449 25.3747 42.0444V40.4043C25.3747 39.7039 24.8109 39.1401 24.1105 39.1401H19.3781ZM8.99089 39.1401H13.7232C14.4237 39.1401 14.9875 39.7039 14.9875 40.4043V42.0444C14.9875 42.7449 14.4237 43.3087 13.7232 43.3087H8.99089C8.29043 43.3087 7.72665 42.7449 7.72665 42.0444V40.4043C7.72665 39.7039 8.29043 39.1401 8.99089 39.1401ZM19.3781 30.2733C18.6777 30.2733 18.1139 30.8371 18.1139 31.5376V33.1777C18.1139 33.8781 18.6777 34.4419 19.3781 34.4419H24.1105C24.8109 34.4419 25.3747 33.8781 25.3747 33.1777V31.5376C25.3747 30.8371 24.8109 30.2733 24.1105 30.2733H19.3781ZM8.99089 30.2733H13.7232C14.4237 30.2733 14.9875 30.8371 14.9875 31.5376V33.1777C14.9875 33.8781 14.4237 34.4419 13.7232 34.4419H8.99089C8.29043 34.4419 7.72665 33.8781 7.72665 33.1777V31.5376C7.72665 30.8371 8.29043 30.2733 8.99089 30.2733ZM19.3781 21.4066H24.1105C24.8109 21.4066 25.3747 21.9704 25.3747 22.6708V24.3109C25.3747 25.0114 24.8109 25.5752 24.1105 25.5752H19.3781C18.6777 25.5752 18.1139 25.0114 18.1139 24.3109V22.6708C18.1139 21.9704 18.6777 21.4066 19.3781 21.4066ZM43.6207 48.3827C42.8861 48.3656 42.1515 48.1606 41.5877 47.7847C41.0752 47.443 40.6651 46.9305 40.5114 46.2642C40.3576 45.6663 39.7597 45.2904 39.1617 45.4442C38.5638 45.5979 38.1879 46.1959 38.3417 46.7938C38.6492 48.0581 39.4009 48.9977 40.3576 49.6469C41.0239 50.0911 41.7927 50.3815 42.5957 50.5182V51.3895C42.5957 52.0046 43.0911 52.5171 43.7232 52.5171C44.3554 52.5171 44.8508 52.0216 44.8508 51.3895V50.5353C45.8246 50.3815 46.8155 50.0228 47.6014 49.4419C48.541 48.7244 49.156 47.7164 49.139 46.3497C49.139 46.1959 49.139 46.0592 49.1048 45.9396C48.9169 44.4362 48.1139 43.4624 47.0376 42.8132C46.098 42.2494 44.9533 41.959 43.9282 41.7882C43.1765 41.6686 42.3907 41.4636 41.8098 41.0877C41.3656 40.7973 41.041 40.3702 41.0068 39.7551C40.9727 39.0888 41.2631 38.5421 41.7244 38.1663C42.0831 37.8759 42.5444 37.6708 43.0399 37.5683C43.2449 37.5342 43.4499 37.5 43.6549 37.5C43.672 37.5 43.7062 37.5 43.7232 37.5C43.7574 37.5 43.7745 37.5 43.8087 37.5C44.082 37.5 44.3554 37.5342 44.6287 37.6025C45.4658 37.8075 46.2175 38.3713 46.6276 39.3109C46.8667 39.8747 47.533 40.1481 48.0968 39.9089C48.6606 39.6697 48.9339 39.0034 48.6948 38.4396C47.9943 36.7654 46.6446 35.7916 45.1754 35.4157C45.0729 35.3815 44.9533 35.3645 44.8508 35.3474V34.4761C44.8508 33.861 44.3554 33.3485 43.7232 33.3485C43.0911 33.3485 42.5957 33.844 42.5957 34.4761V35.3645C41.7415 35.5353 40.9385 35.8941 40.3064 36.4237C39.3155 37.2267 38.6834 38.3884 38.7688 39.8405C38.8371 41.3098 39.5718 42.2836 40.5797 42.9499C41.4681 43.5307 42.5444 43.8212 43.5524 43.992C44.3554 44.1287 45.2096 44.3337 45.8759 44.7267C46.4055 45.0342 46.7984 45.4954 46.8667 46.1959C46.8667 46.2813 46.8838 46.3497 46.8838 46.4009C46.8838 46.9476 46.6276 47.3747 46.2346 47.6651C45.7392 48.041 45.0387 48.2631 44.3554 48.3485C44.1674 48.3656 43.9966 48.3827 43.8599 48.3827H43.8087C43.8087 48.3827 43.7403 48.3827 43.7062 48.3827C43.672 48.3827 43.6549 48.3827 43.6207 48.3827ZM38.2221 18.9977L36.1207 16.8964C35.1298 15.9055 35.1298 14.2995 36.1207 13.3087C36.9579 12.4715 38.2904 12.3349 39.2813 12.967C39.6572 13.2062 40.0843 13.2403 40.4772 13.0695C40.8872 12.8986 41.1606 12.574 41.246 12.1469C41.5023 11.0023 42.5103 10.1481 43.7232 10.1481C44.9191 10.1481 45.9442 10.9852 46.2005 12.1469C46.303 12.574 46.5763 12.8986 46.9693 13.0695C47.3793 13.2403 47.8064 13.2062 48.1651 12.967C49.139 12.3349 50.4715 12.4544 51.3257 13.3087C52.3166 14.2995 52.3166 15.9055 51.3257 16.8964L49.2244 18.9977H38.205H38.2221Z" fill="#CC2127"/>
<path d="M37.7437 31.6913H49.1048L53.9567 43.8553L51.1207 52.3633L40.5797 55.1993L34.5148 51.5432L32.8918 46.2813L33.3018 41.0022L37.7437 31.6913Z" fill="#CC2127"/>
</g>
<defs>
<clipPath id="clip0_56_458">
<rect width="60" height="60" fill="white" transform="translate(0.5)"/>
</clipPath>
</defs>
</svg>
