<svg width="29" height="30" viewBox="0 0 29 30" fill="none" xmlns="http://www.w3.org/2000/svg">
<g clip-path="url(#clip0_56_399)">
<path d="M3.39 18.3398H0.71C0.32 18.3398 0 18.6598 0 19.0498V28.9498C0 29.3398 0.32 29.6598 0.71 29.6598H3.39C3.78 29.6598 4.1 29.3398 4.1 28.9498V19.0498C4.1 18.6598 3.78 18.3398 3.39 18.3398Z" fill="#62B6FF"/>
<path d="M28.24 19.15C28.24 19.15 28.2 19.1 28.19 19.07C27.79 18.63 27.12 18.57 26.65 18.93C25.35 19.99 23.45 21.52 22.22 22.51C21.13 23.38 19.79 23.88 18.4 23.93L15.07 24.04C14.46 24.06 13.89 23.75 13.57 23.22L13.2 22.59C13.1 22.43 13.04 22.25 13 22.06C12.83 21.16 13.42 20.28 14.33 20.11L17.77 19.46C18.32 19.35 18.7 18.83 18.64 18.27C18.57 17.74 18.12 17.34 17.59 17.33H17.45L12.82 17.14C11.21 17.08 9.83 17.39 8.19 18.19L5.41 19.54V26.96L7.75 26.53C7.75 26.53 7.76 26.53 7.77 26.53C8.67 26.4 9.27 26.34 10.25 26.39L17.24 26.72C19.43 26.81 21.59 26.09 23.27 24.68L28.11 20.67C28.56 20.29 28.62 19.62 28.25 19.17L28.24 19.15Z" fill="#62B6FF"/>
<path d="M19.4 0C15.42 0 12.2 3.23 12.19 7.21C12.19 11.2 15.42 14.42 19.4 14.42C23.38 14.42 26.61 11.19 26.61 7.21C26.61 3.23 23.38 0 19.4 0ZM21.07 5.2H21.94C22.3 5.2 22.59 5.49 22.59 5.85C22.59 6.21 22.3 6.5 21.94 6.5H21.07C20.94 7.01 20.68 7.47 20.31 7.84C19.82 8.33 19.17 8.61 18.48 8.65L20.93 10.97C21.19 11.22 21.2 11.63 20.96 11.89C20.72 12.15 20.3 12.16 20.04 11.92L16.4 8.48C16.28 8.36 16.2 8.19 16.2 8.01C16.2 7.65 16.49 7.35 16.85 7.35H18.31C18.71 7.35 19.1 7.2 19.4 6.91C19.52 6.79 19.61 6.65 19.7 6.5H16.86C16.5 6.5 16.21 6.21 16.21 5.85C16.21 5.49 16.5 5.2 16.86 5.2H19.7C19.46 4.68 18.93 4.29 18.31 4.29H16.85C16.49 4.29 16.2 4 16.2 3.64C16.2 3.28 16.49 2.99 16.85 2.99H21.94C22.3 2.99 22.59 3.28 22.59 3.64C22.59 4 22.3 4.29 21.94 4.29H20.69C20.87 4.57 21 4.88 21.07 5.2Z" fill="#62B6FF"/>
</g>
<defs>
<clipPath id="clip0_56_399">
<rect width="28.48" height="29.66" fill="white"/>
</clipPath>
</defs>
</svg>
