<svg width="855" height="262" viewBox="0 0 855 262" fill="none" xmlns="http://www.w3.org/2000/svg">
<mask id="mask0_160_787" style="mask-type:alpha" maskUnits="userSpaceOnUse" x="0" y="0" width="855" height="262">
<rect width="855" height="262" fill="#D9D9D9"/>
</mask>
<g mask="url(#mask0_160_787)">
<g opacity="0.1">
<path d="M896.954 -128.868L474.277 -665.698C465.26 -677.079 452.673 -683.521 439.335 -683.521H157.551C139.047 -683.521 122.234 -671.066 114.625 -651.74C107.111 -632.307 110.211 -609.653 122.609 -593.977L517.014 -93.0075L122.609 407.855C110.211 423.638 107.017 446.292 114.625 465.618C122.234 485.051 139.047 497.505 157.551 497.505H439.335C452.673 497.505 465.26 490.956 474.277 479.79L896.954 -57.0399C913.015 -77.4395 913.015 -108.576 896.954 -128.868Z" fill="white"/>
<path d="M286.42 -128.868L-136.257 -665.698C-145.274 -677.079 -157.861 -683.521 -171.198 -683.521H-452.983C-471.487 -683.521 -488.3 -671.066 -495.908 -651.74C-503.423 -632.307 -500.323 -609.653 -487.924 -593.977L-93.5197 -93.0075L-487.924 407.855C-500.323 423.638 -503.516 446.292 -495.908 465.618C-488.3 485.051 -471.487 497.505 -452.983 497.505H-171.198C-157.861 497.505 -145.274 490.956 -136.257 479.79L286.42 -57.0399C302.482 -77.4395 302.482 -108.576 286.42 -128.868Z" fill="white"/>
</g>
</g>
</svg>
