<svg width="423" height="282" viewBox="0 0 423 282" fill="none" xmlns="http://www.w3.org/2000/svg">
<path d="M3.5 1C-11.5 91.5 48.5 188.5 209 168.5C353.079 150.546 251.611 -16.799 179.5 77.5C153.5 111.5 66.5 305.5 406.5 254.5" stroke="white" stroke-width="2"/>
<g clip-path="url(#clip0_93_79)">
<path d="M401.016 254.984L387.728 274.496C387.362 275.033 387.228 275.682 387.35 276.324C387.472 276.967 387.835 277.522 388.372 277.887L390.081 279.051C390.618 279.417 391.268 279.552 391.91 279.43C392.552 279.308 393.107 278.945 393.473 278.407L409.294 255.177C409.661 254.638 409.794 253.986 409.67 253.343C409.549 252.697 409.187 252.14 408.648 251.773L385.439 235.968C384.902 235.602 384.252 235.467 383.61 235.589C382.968 235.711 382.413 236.074 382.047 236.612L380.883 238.32C380.125 239.433 380.414 240.955 381.526 241.712L401.016 254.984Z" fill="white"/>
</g>
<defs>
<clipPath id="clip0_93_79">
<rect width="44.6193" height="44.6193" fill="white" transform="translate(422.873 273.555) rotate(169.256)"/>
</clipPath>
</defs>
</svg>
