<svg width="911" height="1126" viewBox="0 0 911 1126" fill="none" xmlns="http://www.w3.org/2000/svg">
<g opacity="0.1">
<path d="M898.954 528.406L476.277 17.0614C467.26 6.22089 454.673 0.084758 441.335 0.084758H159.551C141.047 0.084758 124.234 11.948 116.625 30.3564C109.111 48.8671 112.211 70.4458 124.609 85.3771L519.014 562.564L124.609 1039.65C112.211 1054.68 109.017 1076.26 116.625 1094.67C124.234 1113.18 141.047 1125.04 159.551 1125.04H441.335C454.673 1125.04 467.26 1118.8 476.277 1108.17L898.954 596.824C915.015 577.393 915.015 547.735 898.954 528.406Z" fill="white"/>
<path d="M288.42 528.406L-134.257 17.0614C-143.274 6.22089 -155.861 0.084758 -169.198 0.084758H-450.983C-469.487 0.084758 -486.3 11.948 -493.908 30.3564C-501.423 48.8671 -498.323 70.4458 -485.924 85.3771L-91.5197 562.564L-485.924 1039.65C-498.323 1054.68 -501.516 1076.26 -493.908 1094.67C-486.3 1113.18 -469.487 1125.04 -450.983 1125.04H-169.198C-155.861 1125.04 -143.274 1118.8 -134.257 1108.17L288.42 596.824C304.482 577.393 304.482 547.735 288.42 528.406Z" fill="white"/>
</g>
</svg>
