<svg width="34" height="30" viewBox="0 0 34 30" fill="none" xmlns="http://www.w3.org/2000/svg">
<g clip-path="url(#clip0_56_572)">
<path d="M24.05 29.025C23.89 29.275 23.62 29.415 23.33 29.415H9.80999C9.51999 29.415 9.24999 29.265 9.08999 29.025C8.92999 28.785 8.91999 28.485 9.02999 28.225C9.35999 27.485 10.1 27.015 10.91 27.015H12.53V25.595H20.63V27.015H22.25C23.06 27.015 23.79 27.495 24.13 28.225C24.24 28.485 24.21 28.785 24.06 29.025H24.05Z" fill="#CC2127"/>
<path d="M10.79 8.61495C10.34 10.275 8.81999 11.505 7.01999 11.505C4.85999 11.505 3.10999 9.75495 3.10999 7.59495C3.10999 5.78495 4.33999 4.26495 5.99999 3.82495C5.94999 3.99495 5.97999 3.88495 5.96999 7.59495C5.96999 8.16495 6.43999 8.63495 7.00999 8.63495C10.71 8.63495 10.61 8.64495 10.79 8.61495Z" fill="#CC2127"/>
<path d="M10.92 7.60508C10.92 7.79508 10.76 7.94508 10.58 7.94508H7.01999C6.82999 7.94508 6.67999 7.78508 6.67999 7.60508V4.04508C6.67999 3.85508 6.83999 3.70508 7.01999 3.70508C9.17999 3.70508 10.92 5.45508 10.92 7.60508Z" fill="#CC2127"/>
<path d="M10.58 13.605H3.44999C3.25999 13.605 3.10999 13.445 3.10999 13.265C3.10999 13.085 3.26999 12.925 3.44999 12.925H10.58C10.77 12.925 10.92 13.085 10.92 13.265C10.92 13.445 10.76 13.605 10.58 13.605Z" fill="#CC2127"/>
<path d="M10.58 15.6351H3.44999C3.25999 15.6351 3.10999 15.4751 3.10999 15.2951C3.10999 15.1151 3.26999 14.9551 3.44999 14.9551H10.58C10.77 14.9551 10.92 15.1151 10.92 15.2951C10.92 15.4751 10.76 15.6351 10.58 15.6351Z" fill="#CC2127"/>
<path d="M10.58 17.6751H3.44999C3.25999 17.6751 3.10999 17.5151 3.10999 17.3351C3.10999 17.1551 3.26999 16.9951 3.44999 16.9951H10.58C10.77 16.9951 10.92 17.1551 10.92 17.3351C10.92 17.5151 10.76 17.6751 10.58 17.6751Z" fill="#CC2127"/>
<path d="M17.24 11.9251V16.9851C17.24 17.3651 16.93 17.6751 16.55 17.6751H15.11C14.73 17.6751 14.42 17.3651 14.42 16.9851V11.9251C14.42 11.5451 14.72 11.2351 15.11 11.2351H16.55C16.93 11.2351 17.24 11.5451 17.24 11.9251Z" fill="#CC2127"/>
<path d="M21.51 8.36505V16.985C21.51 17.365 21.2 17.675 20.82 17.675H19.38C19 17.675 18.69 17.365 18.69 16.985V8.36505C18.69 7.98505 18.99 7.67505 19.38 7.67505H20.82C21.2 7.67505 21.51 7.98505 21.51 8.36505Z" fill="#CC2127"/>
<path d="M25.77 11.9251V16.9851C25.77 17.3651 25.46 17.6751 25.08 17.6751H23.64C23.26 17.6751 22.95 17.3651 22.95 16.9851V11.9251C22.95 11.5451 23.26 11.2351 23.64 11.2351H25.08C25.46 11.2351 25.77 11.5451 25.77 11.9251Z" fill="#CC2127"/>
<path d="M30.03 9.815V16.985C30.03 17.365 29.72 17.675 29.34 17.675H27.9C27.52 17.675 27.21 17.365 27.21 16.985V9.815C27.21 9.435 27.52 9.125 27.9 9.125H29.34C29.72 9.125 30.03 9.435 30.03 9.815Z" fill="#CC2127"/>
<path d="M24.36 9.45507C24.26 9.45507 24.17 9.40507 24.09 9.33507L20.06 4.54507L16.07 8.40507C15.93 8.53507 15.71 8.53507 15.58 8.40507C15.45 8.27507 15.45 8.04507 15.58 7.91507L19.85 3.79507C19.92 3.73507 20.01 3.69507 20.11 3.69507C20.21 3.69507 20.3 3.74507 20.36 3.81507L24.42 8.64507L28.43 5.81507C28.59 5.70507 28.8 5.74507 28.91 5.89507C29.02 6.04507 28.98 6.26507 28.83 6.37507L24.56 9.39507C24.5 9.43507 24.43 9.45507 24.36 9.45507Z" fill="#CC2127"/>
<path d="M16.57 21.6851C16.31 21.6851 16.1 21.8951 16.1 22.1551C16.1 22.4151 16.31 22.6251 16.57 22.6251C16.83 22.6251 17.04 22.4151 17.04 22.1551C17.04 21.8951 16.83 21.6851 16.57 21.6851Z" fill="#CC2127"/>
<path d="M31.41 0.584961H1.73C0.77 0.584961 0 1.35496 0 2.30496C0 2.85496 0 24.495 0 23.175C0 24.125 0.77 24.905 1.73 24.905H31.42C32.37 24.905 33.15 24.125 33.15 23.175V2.30496C33.15 1.35496 32.37 0.584961 31.42 0.584961H31.41ZM16.57 23.315C15.93 23.315 15.4 22.795 15.4 22.145C15.4 21.495 15.92 20.975 16.57 20.975C17.22 20.975 17.74 21.495 17.74 22.145C17.74 22.795 17.22 23.315 16.57 23.315ZM31.76 19.395H1.38V2.30496C1.38 2.11496 1.54 1.96496 1.72 1.96496H31.41C31.6 1.96496 31.75 2.12496 31.75 2.30496V19.395H31.76Z" fill="#CC2127"/>
</g>
<defs>
<clipPath id="clip0_56_572">
<rect width="33.15" height="28.83" fill="white" transform="translate(0 0.584961)"/>
</clipPath>
</defs>
</svg>
