<svg width="46" height="45" viewBox="0 0 46 45" fill="none" xmlns="http://www.w3.org/2000/svg">
<circle cx="23" cy="22.5" r="22.5" fill="#FB7E62" fill-opacity="0.2"/>
<circle cx="23" cy="22.5" r="14.5" fill="#C80000"/>
<g clip-path="url(#clip0_56_2143)">
<path d="M24.8671 23.6641L23.5271 25.0086C22.9837 25.5539 22.0276 25.5657 21.4724 25.0086L20.1323 23.6641L15.3193 28.4927C15.4985 28.5755 15.696 28.625 15.906 28.625H29.0935C29.3035 28.625 29.501 28.5756 29.6801 28.4927L24.8671 23.6641Z" fill="white"/>
<path d="M29.0939 17.375H15.9064C15.6964 17.375 15.4989 17.4244 15.3198 17.5073L20.4629 22.6674C20.4632 22.6677 20.4636 22.6678 20.4639 22.6681C20.4643 22.6685 20.4644 22.6689 20.4644 22.6689L22.1366 24.3468C22.3143 24.5244 22.6862 24.5244 22.8638 24.3468L24.5358 22.6692C24.5358 22.6692 24.5362 22.6685 24.5365 22.6681C24.5365 22.6681 24.5373 22.6677 24.5376 22.6674L29.6805 17.5073C29.5014 17.4244 29.3039 17.375 29.0939 17.375Z" fill="white"/>
<path d="M14.6496 18.1628C14.5569 18.3503 14.5 18.5583 14.5 18.7812V27.2187C14.5 27.4416 14.5568 27.6497 14.6495 27.8371L19.4709 23.0001L14.6496 18.1628Z" fill="white"/>
<path d="M30.3506 18.1628L25.5293 23.0002L30.3506 27.8372C30.4433 27.6498 30.5001 27.4417 30.5001 27.2188V18.7813C30.5001 18.5583 30.4433 18.3503 30.3506 18.1628Z" fill="white"/>
</g>
<defs>
<clipPath id="clip0_56_2143">
<rect width="16" height="16" fill="white" transform="translate(14.5 15)"/>
</clipPath>
</defs>
</svg>
