<svg width="32" height="26" viewBox="0 0 32 26" fill="none" xmlns="http://www.w3.org/2000/svg">
<g clip-path="url(#clip0_56_390)">
<path d="M23.66 17.9248C23.15 14.4648 20.19 11.9048 16.7 11.8848H15.12C11.63 11.9048 8.67 14.4648 8.16 17.9248L7.4 23.2048C7.35 23.5548 7.47 23.8948 7.72 24.1448C8.02 24.4448 9.83 25.9548 15.91 25.9548C21.99 25.9548 23.8 24.4548 24.1 24.1448C24.35 23.8948 24.46 23.5448 24.42 23.2048L23.66 17.9248Z" fill="#62B6FF"/>
<path d="M9.34 12.7047C7.91 14.0247 6.98 15.7947 6.7 17.7247L6.15 21.5147C1.75 21.4847 0.419997 19.8847 0.199997 19.5647C0.0299971 19.3247 -0.0400029 19.0247 0.00999713 18.7347L0.339997 16.8947C0.919997 13.5947 4.07 11.4047 7.36 11.9847C8.06 12.1047 8.73 12.3547 9.34 12.7047Z" fill="#62B6FF"/>
<path d="M31.82 18.7247C31.87 19.0147 31.8 19.3147 31.63 19.5547C31.41 19.8847 30.08 21.4747 25.68 21.5047L25.13 17.7147C24.86 15.7847 23.93 14.0147 22.49 12.6947C25.39 11.0147 29.09 12.0047 30.77 14.9047C31.12 15.5147 31.37 16.1847 31.49 16.8847L31.82 18.7247Z" fill="#62B6FF"/>
<path d="M9.59 9.44488C8.83 10.5149 7.6 11.1549 6.29 11.1449C4.04 11.1449 2.22 9.32488 2.22 7.07488C2.22 4.82488 4.04 3.00488 6.29 3.00488C7.17 3.00488 8.03 3.29488 8.73 3.81488C8.58 4.39488 8.51 4.99488 8.51 5.59488C8.51 6.95488 8.88 8.28488 9.59 9.44488Z" fill="#62B6FF"/>
<path d="M29.61 7.0748C29.61 9.3248 27.79 11.1448 25.54 11.1448C24.23 11.1448 22.99 10.5148 22.24 9.4448C22.95 8.2848 23.32 6.9548 23.32 5.5948C23.32 4.9948 23.25 4.3948 23.1 3.8148C24.9 2.4648 27.45 2.8348 28.8 4.6248C29.33 5.3248 29.61 6.1848 29.61 7.0648V7.0748Z" fill="#62B6FF"/>
<path d="M15.92 11.1449C18.9852 11.1449 21.47 8.6601 21.47 5.59492C21.47 2.52974 18.9852 0.0449219 15.92 0.0449219C12.8548 0.0449219 10.37 2.52974 10.37 5.59492C10.37 8.6601 12.8548 11.1449 15.92 11.1449Z" fill="#62B6FF"/>
</g>
<defs>
<clipPath id="clip0_56_390">
<rect width="31.83" height="25.91" fill="white" transform="translate(0 0.0449219)"/>
</clipPath>
</defs>
</svg>
