<svg width="25" height="24" viewBox="0 0 25 24" fill="none" xmlns="http://www.w3.org/2000/svg">
<g id="facebook (1) 1" clip-path="url(#clip0_56_132)">
<g id="Group">
<g id="Group_2">
<path id="Vector" d="M12.5 0C5.88323 0 0.5 5.38323 0.5 12C0.5 18.6163 5.88323 24 12.5 24C19.1163 24 24.5 18.6163 24.5 12C24.5 5.38323 19.1173 0 12.5 0ZM15.4843 12.4225H13.532V19.381H10.639C10.639 19.381 10.639 15.5788 10.639 12.4225H9.26388V9.9631H10.639V8.37235C10.639 7.23306 11.1804 5.45283 13.5586 5.45283L15.7023 5.46105V7.84838C15.7023 7.84838 14.3996 7.84838 14.1463 7.84838C13.8931 7.84838 13.5329 7.97503 13.5329 8.51833V9.96359H15.7371L15.4843 12.4225Z" fill="#C80000"/>
</g>
</g>
</g>
<defs>
<clipPath id="clip0_56_132">
<rect width="24" height="24" fill="white" transform="translate(0.5)"/>
</clipPath>
</defs>
</svg>
