<svg width="30" height="32" viewBox="0 0 30 32" fill="none" xmlns="http://www.w3.org/2000/svg">
<g clip-path="url(#clip0_56_568)">
<path fill-rule="evenodd" clip-rule="evenodd" d="M30 12.9671C30 5.90222 24.2533 0.145264 17.1782 0.145264C10.103 0.145264 4.35633 5.89192 4.35633 12.9671C4.35633 15.1916 4.93306 17.3646 6.01442 19.2802C7.07518 18.6005 8.31102 18.1576 9.66014 18.0237C8.66117 16.5407 8.11535 14.7694 8.11535 12.9671C8.11535 7.97225 12.173 3.91457 17.1679 3.91457C22.1627 3.91457 26.2204 7.97225 26.2204 12.9671C26.2204 17.9619 22.3172 21.8548 17.4562 22.0196C18.0844 23.1216 18.4552 24.378 18.4861 25.7168C24.964 25.0474 29.9794 19.5376 29.9794 12.9671H30ZM19.8043 29.6509H1.10196C0.494336 29.6509 0 30.1453 0 30.7529C0 31.3605 0.494336 31.8548 1.10196 31.8548H19.8043C20.4119 31.8548 20.9063 31.3605 20.9063 30.7529C20.9063 30.1453 20.4119 29.6509 19.8043 29.6509ZM17.6725 25.9434V28.827H3.23378V25.9434C3.23378 21.9475 6.44696 18.8167 10.5561 18.8167C14.6653 18.8167 17.6828 22.0093 17.6828 25.9434H17.6725ZM22.3481 11.5047V14.4398H19.0628C18.8363 14.4398 18.6509 14.6252 18.6509 14.8518V18.137H15.7158V14.8518C15.7158 14.6252 15.5304 14.4398 15.3038 14.4398H12.0185V11.5047H15.3038C15.5304 11.5047 15.7158 11.3193 15.7158 11.0927V7.80747H18.6509V11.0927C18.6509 11.3193 18.8363 11.5047 19.0628 11.5047H22.3481Z" fill="#CC2127"/>
</g>
<defs>
<clipPath id="clip0_56_568">
<rect width="30" height="31.7096" fill="white" transform="translate(0 0.145264)"/>
</clipPath>
</defs>
</svg>
