<svg width="29" height="31" viewBox="0 0 29 31" fill="none" xmlns="http://www.w3.org/2000/svg">
<g clip-path="url(#clip0_56_405)">
<path d="M6.43021 0.660156C7.21968 0.660156 7.86041 1.30089 7.86041 2.09036V3.52057C7.86041 4.31004 7.21968 4.95077 6.43021 4.95077C5.64073 4.95077 5 4.31004 5 3.52057V2.09036C5 1.30089 5.64073 0.660156 6.43021 0.660156Z" fill="#62B6FF"/>
<path d="M22.1396 0.660156C22.9291 0.660156 23.5698 1.30089 23.5698 2.09036V3.52057C23.5698 4.31004 22.9291 4.95077 22.1396 4.95077C21.3501 4.95077 20.7094 4.31004 20.7094 3.52057V2.09036C20.7094 1.30089 21.3501 0.660156 22.1396 0.660156Z" fill="#62B6FF"/>
<path d="M0 11.3696V27.7998C0 29.3788 1.28146 30.6602 2.86041 30.6602H25.7208C27.2998 30.6602 28.5812 29.3788 28.5812 27.7998V11.3696H0ZM8.56979 25.6602C8.56979 26.4497 7.92906 27.0905 7.13959 27.0905H5.70938C4.91991 27.0905 4.27918 26.4497 4.27918 25.6602V24.23C4.27918 23.4406 4.91991 22.7998 5.70938 22.7998H7.13959C7.92906 22.7998 8.56979 23.4406 8.56979 24.23V25.6602ZM8.56979 17.7998C8.56979 18.5893 7.92906 19.23 7.13959 19.23H5.70938C4.91991 19.23 4.27918 18.5893 4.27918 17.7998V16.3696C4.27918 15.5802 4.91991 14.9394 5.70938 14.9394H7.13959C7.92906 14.9394 8.56979 15.5802 8.56979 16.3696V17.7998ZM16.4302 25.6602C16.4302 26.4497 15.7895 27.0905 15 27.0905H13.5698C12.7803 27.0905 12.1396 26.4497 12.1396 25.6602V24.23C12.1396 23.4406 12.7803 22.7998 13.5698 22.7998H15C15.7895 22.7998 16.4302 23.4406 16.4302 24.23V25.6602ZM16.4302 17.7998C16.4302 18.5893 15.7895 19.23 15 19.23H13.5698C12.7803 19.23 12.1396 18.5893 12.1396 17.7998V16.3696C12.1396 15.5802 12.7803 14.9394 13.5698 14.9394H15C15.7895 14.9394 16.4302 15.5802 16.4302 16.3696V17.7998ZM24.2906 25.6602C24.2906 26.4497 23.6499 27.0905 22.8604 27.0905H21.4302C20.6407 27.0905 20 26.4497 20 25.6602V24.23C20 23.4406 20.6407 22.7998 21.4302 22.7998H22.8604C23.6499 22.7998 24.2906 23.4406 24.2906 24.23V25.6602ZM24.2906 17.7998C24.2906 18.5893 23.6499 19.23 22.8604 19.23H21.4302C20.6407 19.23 20 18.5893 20 17.7998V16.3696C20 15.5802 20.6407 14.9394 21.4302 14.9394H22.8604C23.6499 14.9394 24.2906 15.5802 24.2906 16.3696V17.7998Z" fill="#62B6FF"/>
<path d="M28.5698 9.95083V5.66022C28.5698 4.08127 27.2883 2.7998 25.7094 2.7998H25V3.50919C25 5.08813 23.7185 6.3696 22.1396 6.3696C20.5606 6.3696 19.2792 5.08813 19.2792 3.50919V2.7998H9.27918V3.50919C9.27918 5.08813 7.99771 6.3696 6.41876 6.3696C4.83982 6.3696 3.55835 5.08813 3.55835 3.50919V2.7998H2.84897C1.28146 2.7998 0 4.08127 0 5.66022V9.95083H28.5698Z" fill="#62B6FF"/>
</g>
<defs>
<clipPath id="clip0_56_405">
<rect width="28.5698" height="30" fill="white" transform="translate(0 0.660156)"/>
</clipPath>
</defs>
</svg>
