<svg width="25" height="24" viewBox="0 0 25 24" fill="none" xmlns="http://www.w3.org/2000/svg">
<g id="instagram (3) 1" clip-path="url(#clip0_56_136)">
<path id="Vector" d="M14.7969 12C14.7969 13.2686 13.7686 14.2969 12.5 14.2969C11.2314 14.2969 10.2031 13.2686 10.2031 12C10.2031 10.7314 11.2314 9.70312 12.5 9.70312C13.7686 9.70312 14.7969 10.7314 14.7969 12Z" fill="#C80000"/>
<path id="Vector_2" d="M17.8716 7.93622C17.7612 7.63702 17.585 7.36621 17.3561 7.14392C17.1339 6.91504 16.8632 6.73889 16.5638 6.62848C16.321 6.53418 15.9563 6.42194 15.2845 6.39136C14.5577 6.35822 14.3398 6.35107 12.5 6.35107C10.66 6.35107 10.4421 6.35803 9.71552 6.39117C9.0437 6.42194 8.67877 6.53418 8.43616 6.62848C8.13678 6.73889 7.86597 6.91504 7.64386 7.14392C7.41498 7.36621 7.23883 7.63684 7.12823 7.93622C7.03394 8.17902 6.92169 8.54395 6.89111 9.21576C6.85797 9.94232 6.85083 10.1602 6.85083 12.0002C6.85083 13.8401 6.85797 14.058 6.89111 14.7847C6.92169 15.4565 7.03394 15.8213 7.12823 16.0641C7.23883 16.3635 7.41479 16.6341 7.64368 16.8564C7.86597 17.0853 8.1366 17.2614 8.43597 17.3718C8.67877 17.4663 9.0437 17.5786 9.71552 17.6091C10.4421 17.6423 10.6598 17.6492 12.4998 17.6492C14.34 17.6492 14.5579 17.6423 15.2843 17.6091C15.9561 17.5786 16.321 17.4663 16.5638 17.3718C17.1648 17.14 17.6398 16.665 17.8716 16.0641C17.9659 15.8213 18.0781 15.4565 18.1089 14.7847C18.142 14.058 18.149 13.8401 18.149 12.0002C18.149 10.1602 18.142 9.94232 18.1089 9.21576C18.0783 8.54395 17.9661 8.17902 17.8716 7.93622ZM12.5 15.5384C10.5457 15.5384 8.96149 13.9543 8.96149 12.0001C8.96149 10.0458 10.5457 8.46173 12.5 8.46173C14.4541 8.46173 16.0383 10.0458 16.0383 12.0001C16.0383 13.9543 14.4541 15.5384 12.5 15.5384ZM16.1782 9.14874C15.7216 9.14874 15.3513 8.7785 15.3513 8.32184C15.3513 7.86517 15.7216 7.49493 16.1782 7.49493C16.6349 7.49493 17.0051 7.86517 17.0051 8.32184C17.0049 8.7785 16.6349 9.14874 16.1782 9.14874Z" fill="#C80000"/>
<path id="Vector_3" d="M12.5 0C5.8736 0 0.5 5.3736 0.5 12C0.5 18.6264 5.8736 24 12.5 24C19.1264 24 24.5 18.6264 24.5 12C24.5 5.3736 19.1264 0 12.5 0ZM19.3491 14.8409C19.3157 15.5744 19.1991 16.0752 19.0288 16.5135C18.6708 17.4391 17.9391 18.1708 17.0135 18.5288C16.5754 18.6991 16.0744 18.8156 15.3411 18.8491C14.6063 18.8826 14.3715 18.8906 12.5002 18.8906C10.6287 18.8906 10.3941 18.8826 9.65912 18.8491C8.92578 18.8156 8.4248 18.6991 7.98663 18.5288C7.52667 18.3558 7.11029 18.0846 6.76605 17.7339C6.41559 17.3899 6.14441 16.9733 5.97137 16.5135C5.80109 16.0754 5.68445 15.5744 5.65112 14.8411C5.61725 14.1061 5.60938 13.8713 5.60938 12C5.60938 10.1287 5.61725 9.89392 5.65094 9.15912C5.68427 8.4256 5.80072 7.9248 5.97101 7.48645C6.14404 7.02667 6.41541 6.61011 6.76605 6.26605C7.11011 5.91541 7.52667 5.64423 7.98645 5.47119C8.4248 5.3009 8.9256 5.18445 9.65912 5.15094C10.3939 5.11743 10.6287 5.10938 12.5 5.10938C14.3713 5.10938 14.6061 5.11743 15.3409 5.15112C16.0744 5.18445 16.5752 5.3009 17.0135 5.47101C17.4733 5.64404 17.8899 5.91541 18.2341 6.26605C18.5846 6.61029 18.856 7.02667 19.0288 7.48645C19.1993 7.9248 19.3157 8.4256 19.3492 9.15912C19.3828 9.89392 19.3906 10.1287 19.3906 12C19.3906 13.8713 19.3828 14.1061 19.3491 14.8409Z" fill="#C80000"/>
</g>
<defs>
<clipPath id="clip0_56_136">
<rect width="24" height="24" fill="white" transform="translate(0.5)"/>
</clipPath>
</defs>
</svg>
