<svg width="61" height="60" viewBox="0 0 61 60" fill="none" xmlns="http://www.w3.org/2000/svg">
<g clip-path="url(#clip0_56_443)">
<path d="M7.99622 33.7481C7.99622 30.6499 10.5202 28.126 13.6184 28.126C16.7166 28.126 19.2406 30.6499 19.2406 33.7481H22.9887V27.6121C22.9887 26.2066 24.6058 25.2847 25.8149 25.995C27.039 26.7053 28.6108 25.7834 28.6108 24.3627C28.6108 23.0025 27.0088 22.0353 25.8149 22.7305C24.5907 23.4559 22.9887 22.5189 22.9887 21.1134V11.2292H6.12217C3.02393 11.2292 0.5 13.7532 0.5 16.8514V33.733H7.99622V33.7481Z" fill="#CC2127"/>
<path d="M23.0038 52.5038C19.9055 52.5038 17.3816 49.9798 17.3816 46.8816C17.3816 43.7834 19.9055 41.2594 23.0038 41.2594V37.5113H16.8678C15.4622 37.5113 14.5252 35.9395 15.2506 34.6851C15.961 33.4761 15.039 31.8892 13.6184 31.8892C12.2582 31.8892 11.2909 33.4912 11.9861 34.6851C12.7116 35.9093 11.7897 37.5113 10.369 37.5113H0.5V54.3929C0.5 57.4761 3.02393 60 6.12217 60H23.0038V52.5038Z" fill="#CC2127"/>
<path d="M41.7443 37.4962C41.7443 40.5945 39.2204 43.1184 36.1222 43.1184C33.0239 43.1184 30.5 40.5945 30.5 37.4962H26.7519V43.6322C26.7519 45.0378 25.1348 45.9597 23.9257 45.2494C22.7166 44.539 21.1297 45.461 21.1297 46.8816C21.1297 48.2418 22.7317 49.2091 23.9257 48.5138C25.1348 47.8035 26.7519 48.7405 26.7519 50.131V60.0151H43.6335C46.7317 60.0151 49.2557 57.4912 49.2557 54.3929V37.5113H41.7594L41.7443 37.4962Z" fill="#CC2127"/>
<path d="M54.8778 0H36.1222C35.0793 0 34.2481 0.831234 34.2481 1.87406V9.88413C34.2481 11.3048 35.8501 12.2116 37.0743 11.5013C38.2985 10.7909 39.8703 11.728 39.8703 13.1335C39.8703 14.5088 38.2683 15.4761 37.0743 14.7657C35.8501 14.0403 34.2481 14.9924 34.2481 16.3829V24.3929C34.2481 25.4358 35.0793 26.267 36.1222 26.267H41.7443C41.7443 29.3652 44.2683 31.8892 47.3665 31.8892C50.4647 31.8892 52.9887 29.3652 52.9887 26.267H58.6108C59.6536 26.267 60.4849 25.4358 60.4849 24.3929V5.62217C60.4849 2.52393 57.961 0 54.8627 0H54.8778Z" fill="#CC2127"/>
</g>
<defs>
<clipPath id="clip0_56_443">
<rect width="60" height="60" fill="white" transform="translate(0.5)"/>
</clipPath>
</defs>
</svg>
