<svg width="25" height="24" viewBox="0 0 25 24" fill="none" xmlns="http://www.w3.org/2000/svg">
<g id="linkedin (2) 1" clip-path="url(#clip0_56_140)">
<path id="Vector" d="M12.5 0C5.8736 0 0.5 5.3736 0.5 12C0.5 18.6264 5.8736 24 12.5 24C19.1264 24 24.5 18.6264 24.5 12C24.5 5.3736 19.1264 0 12.5 0ZM9.01294 18.1406H6.09039V9.34808H9.01294V18.1406ZM7.55176 8.14746H7.53271C6.552 8.14746 5.91772 7.47235 5.91772 6.6286C5.91772 5.76581 6.57141 5.10938 7.57117 5.10938C8.57092 5.10938 9.18616 5.76581 9.2052 6.6286C9.2052 7.47235 8.57092 8.14746 7.55176 8.14746ZM19.551 18.1406H16.6288V13.4368C16.6288 12.2547 16.2057 11.4485 15.1483 11.4485C14.3409 11.4485 13.8601 11.9923 13.6488 12.5173C13.5715 12.7051 13.5527 12.9677 13.5527 13.2305V18.1406H10.6303C10.6303 18.1406 10.6686 10.173 10.6303 9.34808H13.5527V10.593C13.941 9.9939 14.6359 9.14172 16.1865 9.14172C18.1093 9.14172 19.551 10.3984 19.551 13.099V18.1406Z" fill="#C80000"/>
</g>
<defs>
<clipPath id="clip0_56_140">
<rect width="24" height="24" fill="white" transform="translate(0.5)"/>
</clipPath>
</defs>
</svg>
