<svg width="46" height="45" viewBox="0 0 46 45" fill="none" xmlns="http://www.w3.org/2000/svg">
<circle cx="23" cy="22.5" r="22.5" fill="#FB7E62" fill-opacity="0.2"/>
<circle cx="23" cy="22.5" r="14.5" fill="#C80000"/>
<g clip-path="url(#clip0_56_2165)">
<path d="M22.5 15C19.192 15 16.5 17.7107 16.5 21.0433C16.5 25.7787 21.936 30.668 22.1673 30.8733C22.2627 30.958 22.3813 31 22.5 31C22.6187 31 22.7373 30.958 22.8327 30.874C23.064 30.668 28.5 25.7787 28.5 21.0433C28.5 17.7107 25.808 15 22.5 15ZM22.5 24.3333C20.662 24.3333 19.1667 22.838 19.1667 21C19.1667 19.162 20.662 17.6667 22.5 17.6667C24.338 17.6667 25.8333 19.162 25.8333 21C25.8333 22.838 24.338 24.3333 22.5 24.3333Z" fill="white"/>
</g>
<defs>
<clipPath id="clip0_56_2165">
<rect width="16" height="16" fill="white" transform="translate(14.5 15)"/>
</clipPath>
</defs>
</svg>
