<svg width="46" height="45" viewBox="0 0 46 45" fill="none" xmlns="http://www.w3.org/2000/svg">
<circle cx="23" cy="22.5" r="22.5" fill="#FB7E62" fill-opacity="0.2"/>
<circle cx="23" cy="22.5" r="14.5" fill="#C80000"/>
<g clip-path="url(#clip0_56_163)">
<path d="M30.0646 26.8166L27.8317 24.5838C27.0343 23.7863 25.6786 24.1053 25.3596 25.142C25.1204 25.8597 24.323 26.2584 23.6053 26.0989C22.0104 25.7002 19.8573 23.6268 19.4585 21.9522C19.2193 21.2345 19.6978 20.437 20.4155 20.1978C21.4522 19.8788 21.7711 18.5232 20.9737 17.7257L18.7408 15.4929C18.1029 14.9347 17.1459 14.9347 16.5877 15.4929L15.0726 17.008C13.5574 18.6029 15.2321 22.8294 18.9801 26.5774C22.7281 30.3254 26.9545 32.0798 28.5494 30.4849L30.0646 28.9697C30.6228 28.3318 30.6228 27.3748 30.0646 26.8166Z" fill="white"/>
</g>
<defs>
<clipPath id="clip0_56_163">
<rect width="16" height="16" fill="white" transform="translate(14.5 15.0742)"/>
</clipPath>
</defs>
</svg>
