<svg width="59" height="60" viewBox="0 0 59 60" fill="none" xmlns="http://www.w3.org/2000/svg">
<g clip-path="url(#clip0_56_452)">
<path fill-rule="evenodd" clip-rule="evenodd" d="M1.73254 47.6619H24.5761L20.6267 43.2859L22.2539 35.4028C21.7483 36.0032 20.0264 38.7994 19.0785 37.109L14.1022 28.2306C7.04059 31.6114 1.84312 38.2622 0.516108 46.2243C0.389726 46.9826 0.958446 47.6461 1.71674 47.6461L1.73254 47.6619ZM47.5461 30.7425C49.9316 32.5276 49.3945 32.3381 52.3644 32.4961C53.5019 32.5592 54.434 33.3333 54.7025 34.455C55.3818 37.3618 55.0975 36.8562 57.2618 38.8942C58.099 39.684 58.3044 40.8689 57.7831 41.8957C56.4403 44.5498 56.5351 43.981 56.8984 46.951C57.0406 48.0885 56.4245 49.1311 55.3818 49.5893C52.6488 50.7583 53.0911 50.3949 51.4482 52.891C50.8163 53.8547 49.6788 54.2654 48.5888 53.9337C45.7452 53.0648 46.3139 53.0648 43.4545 53.9337C42.3644 54.2654 41.227 53.8547 40.5951 52.891C38.9679 50.3949 39.4103 50.7741 36.6614 49.5893C35.603 49.1311 35.0027 48.0885 35.1449 46.951C35.4924 43.9968 35.603 44.5656 34.2602 41.8957C33.7389 40.8689 33.96 39.684 34.7815 38.8942C36.9458 36.8562 36.6614 37.3618 37.3407 34.455C37.6093 33.3333 38.5256 32.5592 39.6788 32.4961C42.6488 32.3381 42.1117 32.5276 44.4971 30.7425C45.4134 30.0632 46.6298 30.0632 47.5461 30.7425ZM46.0295 35.7662C42.5224 35.7662 39.6788 38.6098 39.6788 42.1169C39.6788 45.624 42.5224 48.4676 46.0295 48.4676C49.5366 48.4676 52.3802 45.624 52.3802 42.1169C52.3802 38.6098 49.5366 35.7662 46.0295 35.7662ZM48.9837 55.9558L50.8005 59.8578C50.8795 60.0158 51.1164 60.0316 51.1954 59.8736L52.949 56.872L56.3771 57.4724C56.5509 57.504 56.693 57.3144 56.6141 57.1564L54.2918 52.1643C54.1022 52.2749 53.2649 53.6493 53.0753 53.9337C52.1591 55.3397 50.5793 56.0821 48.9679 55.9558H48.9837ZM43.0595 55.9558C41.4482 56.0821 39.8684 55.3397 38.9521 53.9337C38.7626 53.6493 37.9253 52.2749 37.7357 52.1643L35.4134 57.1564C35.3344 57.3302 35.4766 57.504 35.6504 57.4724L39.0785 56.872L40.8321 59.8736C40.9268 60.0316 41.148 60.0158 41.227 59.8578L43.0438 55.9558H43.0595ZM24.5761 0C31.385 0 36.9142 5.51343 36.9142 12.3381C36.9142 19.1627 31.4008 24.6761 24.5761 24.6761C17.7515 24.6761 12.2381 19.1627 12.2381 12.3381C12.2381 5.51343 17.7673 0 24.5761 0ZM24.5761 47.6619H33.2017C33.1701 47.346 33.1701 47.03 33.2017 46.6983C33.5019 44.139 33.6757 45.0711 32.5066 42.7646C31.6062 40.9795 31.9853 38.831 33.4387 37.4566C35.3186 35.6872 34.8447 36.5087 35.4292 33.9968C35.84 32.2275 37.2302 30.9321 38.9679 30.6003C37.7357 29.6998 36.4245 28.91 35.0343 28.2464L30.058 37.1248C29.7104 37.7409 28.8573 37.7883 28.4308 37.2354L26.8826 35.4028L28.5098 43.2859L24.5603 47.6619H24.5761ZM33.2491 27.4882L29.0627 34.9447L25.9821 31.2954L31.622 26.9352C32.1749 27.109 32.712 27.2828 33.2491 27.4882ZM29.2049 26.3349L24.5919 29.9052L19.979 26.3349C21.4798 26.0506 23.0122 25.8926 24.5919 25.8926C26.1717 25.8926 27.7199 26.0348 29.2049 26.3349ZM17.5461 26.9352L23.1859 31.2954L20.1054 34.9447L15.919 27.4882C16.4561 27.2828 16.9932 27.0932 17.5461 26.9352Z" fill="#CC2127"/>
</g>
<defs>
<clipPath id="clip0_56_452">
<rect width="57.5671" height="60" fill="white" transform="translate(0.5)"/>
</clipPath>
</defs>
</svg>
