<svg width="131" height="46" viewBox="0 0 131 46" fill="none" xmlns="http://www.w3.org/2000/svg">
<g clip-path="url(#clip0_56_634)">
<path d="M36.2216 21.6907C36.2521 22.7115 36.243 24.0004 36.2292 25.2878C36.217 26.3509 36.217 27.4156 35.9513 28.46C35.5161 30.1644 34.6961 31.6619 33.6502 33.0387C32.2713 34.8529 30.5992 36.3441 28.8081 37.7099C26.4718 39.4912 24.0286 41.1173 21.6786 42.8782C20.5792 43.703 19.4843 44.5356 18.3941 45.3746C18.2032 45.5219 18.0978 45.5643 17.8764 45.3746C17.3236 44.9041 16.7128 44.5059 16.1448 44.0527C13.2374 41.7398 10.1407 39.6982 7.18752 37.4527C5.4834 36.1575 3.8648 34.7682 2.53632 33.0559C1.40788 31.6023 0.572619 29.9998 0.203089 28.1636C0.0106889 27.2071 0 26.238 0 25.2674C0 23.7009 0 22.1344 0.0244318 20.5679C0.0458095 19.2649 0.105362 17.9634 0.143537 16.6604C0.148117 16.4847 0.181711 16.4565 0.35426 16.5255C1.36971 16.9316 2.43707 17.1182 3.51206 17.2578C5.291 17.4883 7.08063 17.5024 8.86873 17.4397C10.7255 17.3754 12.5732 17.1904 14.4147 16.9426C17.3389 16.549 20.231 15.9845 23.1063 15.3165C27.0582 14.3992 30.955 13.2765 34.8214 12.0393C35.0794 11.9562 35.339 11.8778 35.5925 11.7837C35.7421 11.7288 35.7742 11.779 35.7849 11.9248C35.8765 13.1683 35.9635 14.4133 36.0277 15.6584C36.1269 17.5792 36.1941 19.5001 36.2231 21.6891L36.2216 21.6907Z" fill="#CC2127"/>
<path d="M42.7006 6.42254H52.4458C53.4735 6.42254 54.4248 6.59659 55.2982 6.9447C56.1717 7.29281 56.9336 7.7789 57.5811 8.40142C58.2285 9.02394 58.7324 9.76249 59.0928 10.6186C59.4516 11.4732 59.6318 12.4078 59.6318 13.4223C59.6318 14.4369 59.4516 15.3699 59.0928 16.226C58.7324 17.0806 58.2346 17.8144 57.5963 18.4276C56.958 19.0407 56.1976 19.5252 55.3135 19.8843C54.4294 20.2434 53.4735 20.4221 52.4458 20.4221H46.5547V16.6854H51.8594C52.3527 16.6854 52.8046 16.6055 53.2169 16.4471C53.6277 16.2887 53.982 16.0614 54.2812 15.7666C54.579 15.4718 54.8096 15.1221 54.9745 14.7207C55.1394 14.3193 55.2219 13.8865 55.2219 13.4223C55.2219 12.9582 55.1287 12.4987 54.944 12.1083C54.7592 11.7179 54.5164 11.3792 54.2186 11.0953C53.9209 10.81 53.5651 10.5936 53.1543 10.4462C52.742 10.2988 52.3114 10.2251 51.8594 10.2251H46.6478L47.0174 9.8456V27.4235H42.6991V6.42254H42.7006ZM50.6577 19.9784L54.976 19.1238L59.7875 27.4219H54.8523L50.6577 19.9799V19.9784Z" fill="#23295F"/>
<path d="M73.2326 25.7096C72.7181 26.3227 72.0813 26.8135 71.3209 27.182C70.5604 27.5505 69.6137 27.7355 68.4837 27.7355C67.4759 27.7355 66.546 27.5395 65.6924 27.1491C64.8388 26.7586 64.0982 26.2208 63.4722 25.534C62.8446 24.8487 62.3559 24.0239 62.0078 23.0643C61.6581 22.1031 61.484 21.0635 61.484 19.9439C61.484 18.8243 61.6581 17.7956 62.0078 16.8564C62.3575 15.9171 62.8461 15.1049 63.4722 14.418C64.0998 13.7328 64.8388 13.1981 65.6924 12.8186C66.546 12.4392 67.4759 12.2479 68.4837 12.2479C69.6137 12.2479 70.5604 12.4329 71.3209 12.8029C72.0813 13.173 72.7196 13.6638 73.2326 14.2753L73.5106 12.5646H77.1188V27.4188H73.5411L73.2326 25.708V25.7096ZM70.8582 23.7778C71.3315 23.5676 71.7377 23.276 72.0767 22.9075C72.4157 22.539 72.6829 22.0999 72.8784 21.5935C73.0738 21.087 73.1716 20.5382 73.1716 19.947C73.1716 19.3558 73.0738 18.8447 72.8784 18.3476C72.6829 17.8521 72.4157 17.424 72.0767 17.0649C71.7377 16.7058 71.3315 16.4204 70.8582 16.2103C70.3848 16.0002 69.8611 15.8936 69.2854 15.8936C68.7097 15.8936 68.1905 15.9986 67.7279 16.2103C67.2652 16.422 66.8636 16.7074 66.5246 17.0649C66.1856 17.424 65.923 17.8521 65.7382 18.3476C65.5534 18.8447 65.4603 19.3762 65.4603 19.947C65.4603 20.5178 65.5534 21.087 65.7382 21.5935C65.923 22.0999 66.1856 22.539 66.5246 22.9075C66.8636 23.2775 67.2652 23.5676 67.7279 23.7778C68.1905 23.9894 68.7097 24.0945 69.2854 24.0945C69.8611 24.0945 70.3848 23.9894 70.8582 23.7778Z" fill="#23295F"/>
<path d="M91.4297 25.6469C90.9564 26.26 90.3242 26.7602 89.5332 27.1506C88.7407 27.5411 87.7695 27.7371 86.6182 27.7371C85.6318 27.7371 84.711 27.5411 83.8574 27.1506C83.0038 26.7602 82.2632 26.2223 81.6372 25.5355C81.0096 24.8503 80.5209 24.0255 80.1728 23.0659C79.8231 22.1046 79.649 21.065 79.649 19.9454C79.649 18.8258 79.8231 17.7972 80.1728 16.8579C80.5225 15.9187 81.0096 15.1064 81.6372 14.4196C82.2648 13.7344 83.0038 13.1997 83.8574 12.8202C84.711 12.4407 85.6302 12.2494 86.6182 12.2494C87.7695 12.2494 88.7208 12.4454 89.4706 12.8359C90.2203 13.2263 90.8327 13.7171 91.306 14.3083V5.63067H95.4075V27.4203H91.6145L91.4297 25.6469ZM89.0079 23.7621C89.4706 23.541 89.8768 23.2446 90.2265 22.8746C90.5761 22.5061 90.8434 22.0717 91.0281 21.5762C91.2129 21.0807 91.306 20.5366 91.306 19.9454C91.306 19.3543 91.2129 18.8431 91.0281 18.346C90.8434 17.8505 90.5761 17.4224 90.2265 17.0633C89.8768 16.7043 89.466 16.4189 88.9927 16.2088C88.5193 15.9986 88.0062 15.892 87.4504 15.892C86.8946 15.892 86.351 15.9971 85.8776 16.2088C85.4042 16.4204 85.0042 16.7058 84.6743 17.0633C84.3445 17.4224 84.088 17.8505 83.9032 18.346C83.7184 18.8431 83.6253 19.3747 83.6253 19.9454C83.6253 20.5162 83.7184 21.0807 83.9032 21.5762C84.088 22.0733 84.3445 22.5061 84.6743 22.8746C85.0026 23.2446 85.4042 23.5394 85.8776 23.7621C86.351 23.9832 86.8747 24.0945 87.4504 24.0945C88.0261 24.0945 88.5452 23.9832 89.0079 23.7621Z" fill="#23295F"/>
<path d="M98.9868 5.63067H103.088V14.0872C103.253 13.8974 103.464 13.692 103.72 13.4694C103.977 13.2483 104.281 13.0476 104.63 12.8672C104.98 12.6885 105.386 12.5395 105.849 12.4235C106.312 12.3074 106.831 12.2494 107.407 12.2494C108.311 12.2494 109.108 12.3921 109.796 12.6775C110.485 12.9629 111.076 13.358 111.569 13.8645C112.062 14.371 112.438 14.9778 112.694 15.685C112.951 16.3922 113.081 17.1684 113.081 18.012V27.4188H108.979V19.1206C108.979 18.1704 108.732 17.4256 108.239 16.8877C107.746 16.3499 107.057 16.0802 106.173 16.0802C105.741 16.0802 105.334 16.1492 104.954 16.2856C104.574 16.4236 104.244 16.6243 103.968 16.8877C103.69 17.1527 103.475 17.4742 103.32 17.8536C103.166 18.2331 103.088 18.6565 103.088 19.1206V27.4188H98.9868V5.63067Z" fill="#23295F"/>
<path d="M119.033 18.4887H126.466C126.405 18.0246 126.266 17.6122 126.05 17.2531C125.834 16.894 125.561 16.5929 125.233 16.3499C124.903 16.1068 124.544 15.9218 124.153 15.7948C123.762 15.6678 123.36 15.6051 122.95 15.6051C122.353 15.6051 121.824 15.7211 121.362 15.9532C120.899 16.1852 120.519 16.4973 120.221 16.8877C119.923 17.2782 119.702 17.7329 119.558 18.2488C119.415 18.7663 119.343 19.3104 119.343 19.8796C119.343 20.5131 119.415 21.0995 119.558 21.6374C119.702 22.1752 119.934 22.6409 120.252 23.0314C120.571 23.4218 120.971 23.7276 121.455 23.9502C121.937 24.1713 122.508 24.2827 123.167 24.2827C123.825 24.2827 124.446 24.1462 124.971 23.8718C125.495 23.5974 125.912 23.1756 126.221 22.6048H130.261C129.768 24.209 128.873 25.4665 127.578 26.3744C126.283 27.2824 124.741 27.7355 122.951 27.7355C121.759 27.7355 120.69 27.5238 119.743 27.102C118.796 26.6802 118.005 26.1157 117.369 25.407C116.73 24.6998 116.248 23.8812 115.919 22.953C115.59 22.0247 115.426 21.0415 115.426 20.0082C115.426 18.9748 115.596 17.9869 115.935 17.0477C116.274 16.1084 116.767 15.2852 117.416 14.578C118.063 13.8708 118.86 13.3063 119.806 12.8829C120.751 12.4611 121.82 12.2494 123.014 12.2494C124.144 12.2494 125.162 12.4345 126.068 12.8045C126.972 13.1746 127.754 13.692 128.412 14.3569C129.07 15.0217 129.574 15.8136 129.923 16.7325C130.273 17.6514 130.447 18.6596 130.447 19.7573C130.447 19.9893 130.443 20.2057 130.432 20.4064C130.421 20.6071 130.395 20.8032 130.356 20.9929H118.975L119.036 18.4903L119.033 18.4887Z" fill="#23295F"/>
<path d="M11.8769 13.6356C10.2232 13.6497 8.4992 13.5948 6.77981 13.4349C5.10776 13.2796 3.44335 13.0632 1.84612 12.4925C1.42926 12.3435 1.02919 12.16 0.661184 11.9045C0.493216 11.7884 0.421448 11.663 0.459622 11.434C0.928407 8.58332 1.62166 5.80316 2.87378 3.19548C2.96388 3.00732 3.03106 2.99634 3.2143 3.06847C5.04516 3.79605 6.93556 4.28058 8.88552 4.52833C10.3667 4.7165 11.8494 4.74629 13.3306 4.56126C14.9492 4.35898 16.4899 3.89327 17.9207 3.07945C18.052 3.00418 18.1421 2.99948 18.275 3.07631C19.8905 3.99362 21.6328 4.47345 23.4652 4.62084C26.7726 4.88585 29.9426 4.25549 33.0226 3.05279C33.1829 2.99007 33.2409 3.01359 33.3142 3.16569C34.2793 5.16025 34.9053 7.27242 35.3665 9.43947C35.5024 10.0745 35.6016 10.719 35.7269 11.3556C35.7543 11.4968 35.7177 11.5218 35.5864 11.5422C33.2959 11.8747 31.0024 12.1757 28.7058 12.4501C26.1924 12.7496 23.6774 13.0115 21.1548 13.2153C19.3423 13.3612 17.5283 13.4803 15.7127 13.5525C14.459 13.6027 13.2069 13.6419 11.8799 13.6356H11.8769Z" fill="#23295F"/>
<path d="M10.4492 33.4981C9.62916 33.4981 8.80917 33.4981 7.98918 33.5044C7.84717 33.5044 7.80594 33.4605 7.80747 33.3147C7.8151 31.5271 7.78456 29.7395 7.82885 27.9535C7.88076 25.7755 9.35125 23.7793 11.2905 23.1568C11.3424 23.2619 11.2753 23.3418 11.2325 23.4218C10.753 24.3234 10.5576 25.2831 10.5683 26.3117C10.5912 28.5776 10.5774 30.845 10.5713 33.1108C10.5713 33.2457 10.64 33.4197 10.4492 33.4981Z" fill="#23295F"/>
<path d="M25.6579 22.8448C26.4794 22.8463 27.2994 22.8526 28.1209 22.8479C28.2691 22.8479 28.3194 22.8855 28.3194 23.0455C28.3118 24.866 28.3653 26.6896 28.292 28.507C28.2141 30.4671 27.2429 31.916 25.5846 32.8787C25.3571 33.012 25.1174 33.1234 24.8654 33.2002C24.8104 33.1092 24.8593 33.0308 24.9005 32.9556C25.406 32.0304 25.5953 31.0331 25.5892 29.9778C25.5755 27.7371 25.5846 25.4963 25.5861 23.2556C25.5861 23.116 25.551 22.9671 25.6579 22.8463V22.8448Z" fill="#23295F"/>
<path d="M32.0972 24.7154C32.2698 25.2423 32.4301 25.7127 32.5767 26.1879C32.6225 26.3384 32.6836 26.4011 32.8485 26.398C33.3478 26.3854 33.8471 26.3933 34.3648 26.4387C34.1235 26.6159 33.8838 26.7931 33.6425 26.9687C33.473 27.0926 33.3051 27.2212 33.1295 27.3372C33.021 27.4094 32.9981 27.4784 33.0439 27.6101C33.1982 28.0491 33.3356 28.4945 33.4791 28.9366C33.4944 28.9806 33.5234 29.0213 33.4914 29.0903C33.0867 28.7971 32.682 28.5117 32.2866 28.2122C32.1552 28.1134 32.0651 28.1071 31.9292 28.2122C31.5475 28.507 31.152 28.7814 30.7611 29.0652C30.6909 28.9947 30.7351 28.9382 30.7535 28.8833C30.8772 28.4992 30.9886 28.1119 31.1322 27.7355C31.2146 27.5207 31.181 27.4 30.9871 27.2714C30.5977 27.0142 30.2282 26.7273 29.8541 26.456C29.8785 26.3588 29.9457 26.3948 29.99 26.3948C30.416 26.3917 30.842 26.3744 31.2665 26.3995C31.5093 26.4136 31.5994 26.3196 31.662 26.0953C31.7872 25.65 31.9399 25.2125 32.1003 24.717L32.0972 24.7154Z" fill="white"/>
<path d="M5.35971 29.0684C4.9627 28.7814 4.56263 28.4992 4.17172 28.2059C4.04956 28.1134 3.96405 28.0993 3.83273 28.1997C3.44488 28.4976 3.04481 28.7783 2.6203 29.0856C2.6142 28.9006 2.68596 28.7767 2.72567 28.6466C2.83408 28.3 2.94402 27.9519 3.0616 27.6101C3.10436 27.4862 3.08756 27.4172 2.97609 27.3404C2.61725 27.0926 2.26604 26.8308 1.91331 26.5736C1.85376 26.5297 1.77741 26.5015 1.73007 26.3917C2.22176 26.3917 2.69818 26.3807 3.17307 26.3964C3.3838 26.4042 3.48458 26.3494 3.54413 26.1251C3.66476 25.6782 3.82509 25.2439 4.02055 24.7986C4.1534 25.2063 4.27861 25.6171 4.42062 26.0216C4.5779 26.467 4.44352 26.3839 4.923 26.3901C5.35971 26.3964 5.79796 26.3901 6.253 26.4403C5.93539 26.6724 5.6193 26.906 5.30169 27.1365C5.0248 27.3372 4.94183 27.6075 5.05279 27.9472C5.15357 28.2545 5.2513 28.5635 5.35055 28.8708C5.36888 28.9288 5.41469 28.9821 5.35971 29.0668V29.0684Z" fill="white"/>
<path d="M21.5442 7.73657C21.2846 7.92944 21.0815 8.08154 20.8785 8.2305C20.4494 8.54255 20.0249 8.85929 19.5882 9.15879C19.4431 9.25758 19.4339 9.35009 19.4874 9.50533C19.7271 10.2157 19.9562 10.9291 20.1883 11.6426C20.2005 11.6802 20.2234 11.7132 20.1959 11.7665C19.5637 11.3102 18.9285 10.8633 18.3085 10.3928C18.1375 10.2627 18.0352 10.2847 17.8795 10.4023C17.2626 10.8648 16.635 11.3133 15.9677 11.7994C16.1616 11.1926 16.3448 10.6328 16.5189 10.073C16.5999 9.81267 16.8121 9.52258 16.7251 9.29992C16.6426 9.08823 16.328 8.97219 16.1143 8.81696C15.6424 8.47355 15.1706 8.13015 14.6972 7.78674C14.7385 7.69737 14.8102 7.73814 14.8621 7.73814C15.5905 7.735 16.3174 7.73029 17.0457 7.7397C17.2168 7.74127 17.2977 7.7005 17.3542 7.51704C17.568 6.80828 17.8062 6.10736 18.0352 5.40174C18.0474 5.36567 18.0627 5.33117 18.0978 5.24493C18.2872 5.81884 18.4612 6.34727 18.6353 6.87727C18.7086 7.10151 18.7941 7.3226 18.8522 7.55154C18.8919 7.70677 18.9728 7.7397 19.1178 7.73814C19.8294 7.73186 20.5425 7.735 21.2541 7.735C21.3274 7.735 21.4022 7.735 21.5458 7.735L21.5442 7.73657Z" fill="white"/>
<path d="M26.9864 11.4231C27.1177 10.6077 27.2322 9.85657 27.362 9.10704C27.3972 8.90163 27.3697 8.78559 27.1635 8.68524C26.4733 8.35438 25.7969 7.9953 25.0532 7.61583C25.4884 7.54683 25.858 7.48725 26.229 7.42923C26.6566 7.36337 27.0841 7.29281 27.5117 7.23479C27.669 7.21284 27.6796 7.09994 27.698 6.9839C27.811 6.26416 27.9224 5.54443 28.0339 4.82312C28.0431 4.76824 28.0599 4.7165 28.0843 4.61928C28.321 5.07715 28.5409 5.50523 28.7592 5.93174C28.9058 6.21869 29.0539 6.50564 29.1914 6.7973C29.2479 6.91647 29.3059 6.94784 29.4403 6.92431C30.1641 6.79887 30.8894 6.68911 31.6147 6.57621C31.6803 6.56523 31.7475 6.5668 31.7918 6.56366C31.5231 6.85375 31.2528 7.15482 30.9734 7.44648C30.6954 7.735 30.413 8.01725 30.1228 8.29166C30.0297 8.37947 30.0297 8.44062 30.0862 8.55039C30.4099 9.17133 30.7275 9.79699 31.0421 10.4226C31.0833 10.5042 31.1459 10.581 31.1474 10.6845C31.0879 10.741 31.0497 10.672 31.0115 10.6531C30.3473 10.3176 29.6831 9.98359 29.0249 9.63548C28.886 9.56178 28.8127 9.59314 28.7119 9.69663C28.1576 10.2596 27.5941 10.8131 26.9864 11.4199V11.4231Z" fill="white"/>
<path d="M8.72519 11.4434C8.35719 11.0295 8.0243 10.6563 7.69295 10.2815C7.50055 10.0636 7.30204 9.85187 7.12338 9.62294C7.02413 9.49592 6.93862 9.47867 6.79355 9.54296C6.07434 9.86442 5.34903 10.1733 4.61607 10.4901C4.59012 10.4054 4.64509 10.3615 4.67257 10.3144C5.04363 9.68409 5.41469 9.05373 5.79491 8.42808C5.87736 8.29323 5.88042 8.21012 5.76742 8.08624C5.23603 7.49979 4.71685 6.90393 4.15187 6.26416C4.68632 6.38334 5.16273 6.48683 5.63915 6.59502C5.93997 6.66245 6.24231 6.72988 6.5416 6.80358C6.68361 6.83807 6.76301 6.79103 6.83784 6.66088C7.19973 6.03366 7.57232 5.41271 7.94337 4.79176C7.97697 4.73531 7.99071 4.65691 8.07775 4.62712C8.15562 5.42839 8.24114 6.22183 8.3068 7.01683C8.31901 7.17207 8.37856 7.21127 8.50836 7.23949C9.23978 7.3963 9.97121 7.55938 10.7011 7.72246C10.753 7.73343 10.8019 7.75695 10.8767 7.78361C10.1315 8.10506 9.40928 8.42181 8.68243 8.72444C8.52668 8.78873 8.47782 8.8687 8.49614 9.03962C8.5786 9.82051 8.64579 10.603 8.72519 11.4419V11.4434Z" fill="white"/>
<path d="M43.4213 37.3571C43.4274 37.5092 43.4641 37.6456 43.5313 37.7679C43.5985 37.8902 43.6886 37.9937 43.797 38.0784C43.9069 38.1631 44.0321 38.2258 44.1741 38.265C44.3161 38.3042 44.4704 38.3246 44.6353 38.3246C44.7834 38.3246 44.9254 38.3073 45.0613 38.2744C45.1972 38.2415 45.3178 38.1882 45.4217 38.1145C45.5255 38.0408 45.608 37.9514 45.6706 37.8448C45.7332 37.7381 45.7637 37.6158 45.7637 37.4747C45.7637 37.3101 45.7164 37.1783 45.6217 37.078C45.527 36.9776 45.411 36.893 45.2751 36.8224C45.1392 36.7534 44.9926 36.6985 44.8353 36.6624C44.678 36.6264 44.5314 36.5888 44.3955 36.5527C44.165 36.4978 43.9298 36.4351 43.6901 36.3614C43.4503 36.2893 43.235 36.1905 43.0426 36.065C42.8502 35.9396 42.693 35.7781 42.5723 35.5774C42.4502 35.3766 42.3906 35.1179 42.3906 34.8027C42.3906 34.5346 42.441 34.2931 42.5418 34.0783C42.6426 33.8619 42.7876 33.6816 42.977 33.5358C43.1663 33.3899 43.3938 33.277 43.6611 33.1986C43.9268 33.1202 44.2261 33.0794 44.5574 33.0794C44.8888 33.0794 45.1774 33.1218 45.4415 33.208C45.7042 33.2927 45.9271 33.415 46.1073 33.5734C46.2875 33.7318 46.428 33.9215 46.5287 34.1426C46.6295 34.3653 46.686 34.6161 46.6982 34.8953H45.5881C45.582 34.7557 45.5515 34.6318 45.495 34.5252C45.4385 34.4186 45.3621 34.3292 45.2644 34.2555C45.1667 34.1834 45.0537 34.1269 44.9269 34.0908C44.7987 34.0548 44.6658 34.036 44.5223 34.036C44.3788 34.036 44.2566 34.0516 44.1314 34.0814C44.0062 34.1128 43.8962 34.1583 43.7985 34.2179C43.7008 34.279 43.6244 34.3574 43.5679 34.4499C43.5114 34.544 43.4839 34.6553 43.4839 34.7824C43.4839 34.9345 43.5298 35.0583 43.6214 35.1556C43.713 35.2528 43.8275 35.3343 43.9634 35.397C44.0993 35.4613 44.2444 35.5099 44.3986 35.5429C44.5528 35.5758 44.6887 35.6119 44.8078 35.6479C45.0506 35.7028 45.2934 35.7687 45.5362 35.8439C45.779 35.9192 46.0004 36.0211 46.202 36.1497C46.4035 36.2783 46.5669 36.4445 46.6906 36.6515C46.8143 36.8585 46.8769 37.1235 46.8769 37.4449C46.8769 37.7428 46.8189 38.0078 46.7043 38.243C46.5883 38.4767 46.431 38.6711 46.2295 38.8264C46.0279 38.9816 45.7897 39.0992 45.5148 39.1823C45.24 39.2639 44.9422 39.3062 44.6231 39.3062C44.2795 39.3062 43.9665 39.2607 43.6855 39.1698C43.4045 39.0788 43.1648 38.9471 42.9663 38.7778C42.7678 38.6084 42.609 38.403 42.4914 38.1615C42.3723 37.9216 42.3082 37.6535 42.2959 37.3555H43.4244L43.4213 37.3571Z" fill="#CC2127"/>
<path d="M58.2468 38.2415V39.2168H54.1179V33.1704H58.1583V34.1457H55.086L55.1929 34.036V38.3497L55.086 38.2399H58.2468V38.2415ZM57.8651 35.6432V36.5919H55.0585V35.6432H57.8651Z" fill="#CC2127"/>
<path d="M71.5209 36.9557C71.4552 37.3148 71.3361 37.6378 71.1605 37.9263C70.9849 38.2148 70.7696 38.4626 70.5116 38.6696C70.2535 38.8765 69.9619 39.0349 69.6366 39.1431C69.3114 39.2513 68.9647 39.3078 68.5983 39.3078C68.1478 39.3078 67.734 39.2309 67.3553 39.0757C66.9766 38.9204 66.6483 38.7041 66.3704 38.4281C66.0925 38.1521 65.8756 37.8212 65.7214 37.4386C65.5672 37.056 65.4908 36.6405 65.4908 36.1905C65.4908 35.7404 65.5672 35.3249 65.7214 34.9454C65.8756 34.566 66.0909 34.2382 66.3704 33.9607C66.6483 33.6847 66.9766 33.4683 67.3553 33.3131C67.734 33.1579 68.1478 33.081 68.5983 33.081C68.9602 33.081 69.3007 33.1343 69.6198 33.241C69.9389 33.3476 70.2275 33.4997 70.481 33.6973C70.736 33.8948 70.9498 34.1316 71.1254 34.4092C71.2995 34.6867 71.4232 34.994 71.4934 35.3343H70.3573C70.2276 34.9517 70.0031 34.6538 69.687 34.4405C69.3709 34.2273 69.0044 34.1222 68.5906 34.1222C68.3188 34.1222 68.0623 34.174 67.8225 34.2774C67.5828 34.3809 67.3721 34.5221 67.1919 34.7008C67.0117 34.8811 66.8712 35.096 66.7705 35.3484C66.6697 35.6009 66.6193 35.8816 66.6193 36.192C66.6193 36.5025 66.6697 36.7832 66.7705 37.0356C66.8712 37.2881 67.0117 37.5045 67.1919 37.688C67.3721 37.8714 67.5828 38.0125 67.8225 38.1176C68.0623 38.2211 68.3188 38.2728 68.5906 38.2728C69.0167 38.2728 69.3892 38.1584 69.7099 37.931C70.029 37.7036 70.252 37.3791 70.3757 36.9604H71.5209V36.9557Z" fill="#CC2127"/>
<path d="M78.7634 33.172H79.8201V36.9384C79.8201 37.1454 79.8552 37.3336 79.9269 37.5029C79.9972 37.6738 80.098 37.8181 80.2247 37.9357C80.353 38.0533 80.5041 38.1443 80.6828 38.2054C80.8599 38.2666 81.0554 38.2964 81.2692 38.2964C81.4936 38.2964 81.6937 38.2666 81.8693 38.2054C82.0433 38.1443 82.1945 38.0549 82.3228 37.9357C82.4495 37.8181 82.5488 37.6723 82.6205 37.5029C82.6908 37.3336 82.7274 37.1438 82.7274 36.9384V33.172H83.7933V37.02C83.7933 37.3728 83.7322 37.6895 83.6116 37.9733C83.4894 38.2556 83.3184 38.4971 83.097 38.6978C82.8756 38.8985 82.6099 39.0506 82.3029 39.1541C81.996 39.2576 81.654 39.3093 81.2814 39.3093C80.9088 39.3093 80.5591 39.2576 80.2522 39.1541C79.9437 39.0506 79.6811 38.8985 79.4627 38.6978C79.2429 38.4971 79.0734 38.2556 78.9527 37.9733C78.8306 37.6911 78.771 37.3728 78.771 37.02V33.172H78.7634Z" fill="#CC2127"/>
<path d="M91.0327 33.172H93.7675C94.0577 33.172 94.3264 33.2206 94.5753 33.3178C94.8242 33.415 95.0395 33.5514 95.2243 33.7286C95.4075 33.9058 95.5511 34.1159 95.6549 34.359C95.7572 34.602 95.8106 34.867 95.8106 35.1524C95.8106 35.4378 95.7603 35.7028 95.6595 35.9458C95.5587 36.1889 95.4167 36.399 95.2334 36.5746C95.0502 36.7503 94.8334 36.8883 94.5845 36.9902C94.3356 37.0905 94.0638 37.1407 93.7675 37.1407H91.9733V36.1826H93.6255C93.7859 36.1826 93.9294 36.1591 94.0607 36.1105C94.1905 36.0619 94.3035 35.9898 94.3982 35.8957C94.4929 35.8016 94.5677 35.6918 94.6196 35.5679C94.673 35.4425 94.699 35.3077 94.699 35.1618C94.699 35.0034 94.67 34.8623 94.6104 34.7384C94.5509 34.6146 94.473 34.5064 94.3753 34.4154C94.2776 34.3245 94.163 34.2571 94.0332 34.2147C93.9019 34.1724 93.766 34.1504 93.624 34.1504H91.9993L92.1062 34.0407V39.2199H91.0312V33.1735L91.0327 33.172ZM93.3598 37.0106L94.4608 36.8098L95.8366 39.2168H94.5936L93.3598 37.0106Z" fill="#CC2127"/>
<path d="M103.081 33.172H104.156V39.2184H103.081V33.172Z" fill="#CC2127"/>
<path d="M111.398 33.172H116.255V34.1661H111.398V33.172ZM113.281 34.0297H114.356V39.2184H113.281V34.0297Z" fill="#CC2127"/>
<path d="M123.499 33.172H124.716L126.315 35.8988H126.208L127.798 33.172H129.015L126.262 37.7946L123.499 33.172ZM125.729 36.7644H126.795V39.2168H125.729V36.7644Z" fill="#CC2127"/>
<path d="M13.8895 21.145C13.5398 21.3833 13.1886 21.6217 12.8389 21.8585C12.054 20.9145 11.2722 19.969 10.4843 19.0281C10.2812 18.7866 10.272 18.7929 10.5225 18.5922C10.7225 18.4323 10.9271 18.277 11.1226 18.1124C11.2386 18.0152 11.3073 18.0277 11.4081 18.15C12.2296 19.152 13.0603 20.1461 13.8895 21.1434V21.145Z" fill="white"/>
<path d="M23.3415 34.8216C23.6209 34.5487 23.8988 34.2759 24.1783 34.003C24.6272 34.5597 25.0792 35.1116 25.522 35.6746C25.6228 35.8032 25.69 35.8157 25.8152 35.7075C25.9939 35.5523 26.1542 35.3516 26.4336 35.3908C26.6367 35.419 26.7848 35.5099 26.852 35.7122C26.9192 35.9113 26.8719 36.0917 26.7268 36.2344C26.6276 36.3332 26.5146 36.4194 26.3985 36.4978C26.2931 36.5684 26.2916 36.6232 26.3725 36.7189C26.6398 37.0372 26.8948 37.3665 27.1651 37.6833C27.249 37.782 27.2719 37.8401 27.1574 37.9263C26.9268 38.1004 26.6993 38.2775 26.4779 38.4641C26.3832 38.5441 26.3374 38.508 26.2748 38.4281C26.0351 38.127 25.7786 37.8401 25.5495 37.5296C25.4243 37.3618 25.3342 37.3257 25.1784 37.4857C25.0303 37.6378 24.8608 37.7585 24.6226 37.7146C24.4379 37.6801 24.3065 37.5876 24.2424 37.4088C24.1767 37.2222 24.2119 37.0513 24.3386 36.9008C24.3493 36.8882 24.3615 36.8788 24.3707 36.8679C24.4821 36.744 24.7204 36.6875 24.7066 36.5213C24.6959 36.3849 24.5203 36.2626 24.415 36.134C24.0576 35.6965 23.6988 35.259 23.3415 34.8216Z" fill="white"/>
<path d="M15.8226 35.5507C14.1796 35.5507 12.5381 35.5507 10.895 35.5507C10.7744 35.5507 10.6782 35.5679 10.6782 35.3751C10.6858 32.2013 10.6568 29.0276 10.6965 25.8539C10.7255 23.53 12.4067 21.4743 14.6102 20.9458C15.0179 20.8486 15.4317 20.7985 15.8516 20.7985C18.9651 20.8016 22.0802 20.8032 25.1937 20.7937C25.4243 20.7937 25.4686 20.8612 25.4686 21.0854C25.4609 24.1792 25.464 27.2745 25.4625 30.3683C25.4625 32.885 23.5201 35.1603 21.0922 35.499C20.8449 35.5335 20.599 35.5476 20.3516 35.5476C18.8415 35.5476 17.3297 35.5476 15.8196 35.5476L15.8226 35.5507Z" fill="#6ECCE2"/>
<path d="M10.8431 35.6103C10.782 35.6103 10.721 35.6056 10.6751 35.5601C10.637 35.5209 10.6186 35.4629 10.6202 35.3766C10.6232 34.2743 10.6202 33.1735 10.6202 32.0712C10.6171 30.0343 10.6141 27.9268 10.64 25.8539C10.669 23.5206 12.3335 21.4319 14.598 20.8894C15.0087 20.7906 15.4286 20.7404 15.8486 20.7404H15.8532C18.6872 20.7436 21.9794 20.7451 25.1952 20.7357C25.3281 20.7357 25.4044 20.7577 25.4564 20.8094C25.5159 20.8706 25.5281 20.9647 25.5281 21.0854C25.5235 23.2525 25.5235 25.4211 25.5235 27.5881V30.3683C25.5235 32.932 23.5812 35.212 21.1045 35.5585C20.8662 35.5915 20.6235 35.6087 20.3608 35.6087H14.9293C13.5856 35.6087 12.2418 35.6087 10.8981 35.6087H10.8721C10.8645 35.6087 10.8553 35.6087 10.8477 35.6087L10.8431 35.6103ZM15.847 20.858C15.4363 20.858 15.0255 20.9066 14.6239 21.0039C12.4098 21.5354 10.7836 23.5755 10.7546 25.8554C10.7286 27.9268 10.7316 30.0327 10.7347 32.0712C10.7362 33.1735 10.7378 34.2743 10.7347 35.3766C10.7347 35.4409 10.7469 35.466 10.7561 35.477C10.7729 35.4942 10.8172 35.4942 10.866 35.4942H10.8935C12.2373 35.4942 13.581 35.4942 14.9247 35.4942H20.3562C20.6143 35.4942 20.8525 35.4786 21.0846 35.4456C23.5064 35.1069 25.4044 32.8787 25.4044 30.373V27.5928C25.4044 25.4258 25.4044 23.2572 25.4105 21.0901C25.4105 20.9803 25.3999 20.9255 25.3724 20.8972C25.3449 20.869 25.2945 20.858 25.1937 20.858C21.9779 20.8674 18.6857 20.8643 15.8516 20.8627H15.847V20.858Z" fill="#242A5F"/>
<path d="M14.5415 23.3262H18.9957C19.466 23.3262 19.8997 23.4061 20.2997 23.5645C20.6983 23.7244 21.0464 23.9455 21.3427 24.2309C21.6389 24.5163 21.8695 24.8534 22.0329 25.2439C22.1978 25.6343 22.2802 26.0624 22.2802 26.525C22.2802 26.9876 22.1978 27.4156 22.0329 27.8061C21.8679 28.1965 21.6404 28.5321 21.3488 28.8128C21.0571 29.0935 20.709 29.3146 20.3058 29.4792C19.9012 29.6438 19.4645 29.7254 18.9957 29.7254H16.3036V28.0178H18.7285C18.9545 28.0178 19.1606 27.9817 19.3484 27.9096C19.5362 27.8374 19.6981 27.734 19.8355 27.5991C19.9714 27.4643 20.0768 27.3043 20.1531 27.1208C20.228 26.9374 20.2661 26.7398 20.2661 26.5266C20.2661 26.3133 20.2234 26.1047 20.1394 25.926C20.0554 25.7472 19.9439 25.5936 19.808 25.4634C19.6721 25.3333 19.5103 25.2345 19.3209 25.1671C19.1331 25.0996 18.9361 25.0651 18.7285 25.0651H16.3464L16.5159 24.8911V32.9242H14.543V23.3277L14.5415 23.3262ZM18.1788 29.5215L20.1516 29.1311L22.3505 32.9242H20.0951L18.1788 29.5231V29.5215Z" fill="#22295E"/>
</g>
<defs>
<clipPath id="clip0_56_634">
<rect width="131" height="45" fill="white" transform="translate(0 0.5)"/>
</clipPath>
</defs>
</svg>
