<svg width="30" height="28" viewBox="0 0 30 28" fill="none" xmlns="http://www.w3.org/2000/svg">
<g clip-path="url(#clip0_56_596)">
<path d="M12.2473 11.7968C12.2473 13.3079 13.4731 14.5443 14.9947 14.5443C16.5058 14.5443 17.7422 13.3079 17.7422 11.7968C17.7422 11.11 17.478 10.4442 17.013 9.93702C16.7806 9.68341 16.7172 9.32412 16.844 9.00711L17.4886 7.42205L14.9947 6.3125L12.5009 7.42205L13.1455 9.00711C13.2723 9.32412 13.2089 9.68341 12.9764 9.93702C12.5009 10.4442 12.2473 11.11 12.2473 11.7968ZM14.9947 10.9198C15.4808 10.9198 15.8718 11.3107 15.8718 11.7968C15.8718 12.2829 15.4808 12.6739 14.9947 12.6739C14.5086 12.6739 14.1177 12.2829 14.1177 11.7968C14.1177 11.3107 14.5086 10.9198 14.9947 10.9198Z" fill="#CC2127"/>
<path d="M27.7809 4.34705L16.9602 0.299854C16.4213 0.0990792 15.7344 -0.0065918 15.0053 -0.0065918C14.2762 -0.0065918 13.5893 0.0990792 13.0504 0.299854L2.21909 4.34705C0.972173 4.81201 0 6.21743 0 7.53832V11.9025C0 13.3608 1.18352 14.5443 2.64178 14.5443H11.4336C10.8418 13.7835 10.4931 12.8324 10.4931 11.7969C10.4931 10.8564 10.789 9.94762 11.3279 9.18679L10.5565 7.28471C10.3769 6.84089 10.5777 6.34424 11.0109 6.15403L14.6354 4.53726C14.8679 4.43159 15.1215 4.43159 15.354 4.53726L18.9785 6.15403C19.4118 6.34424 19.6125 6.85146 19.4329 7.28471L18.6615 9.18679C19.2004 9.94762 19.4963 10.8564 19.4963 11.7969C19.4963 12.8324 19.1476 13.7835 18.5558 14.5443H27.3477C28.8059 14.5443 29.9894 13.3608 29.9894 11.9025V7.53832C29.9894 6.20686 29.0173 4.80144 27.7703 4.34705H27.7809Z" fill="#CC2127"/>
<path d="M2.34589 16.2983H27.6647V18.9401H2.34589V16.2983Z" fill="#CC2127"/>
<path d="M27.6541 20.6943H2.34591L1.70131 21.6348C1.54281 21.9835 1.61678 22.3956 1.89152 22.6493C1.94436 22.7021 3.31808 24.0124 5.61114 25.3333C7.73513 26.5485 11.0849 27.9962 15.0053 27.9962C18.9257 27.9962 22.2755 26.5485 24.3994 25.3333C26.6925 24.023 28.0557 22.7127 28.1191 22.6493C28.3938 22.3851 28.4678 21.973 28.3093 21.6348L27.6647 20.6943H27.6541Z" fill="#CC2127"/>
</g>
<defs>
<clipPath id="clip0_56_596">
<rect width="30" height="28.0134" fill="white" transform="translate(0 -0.0065918)"/>
</clipPath>
</defs>
</svg>
