<svg width="101" height="100" viewBox="0 0 101 100" fill="none" xmlns="http://www.w3.org/2000/svg">
<g clip-path="url(#clip0_56_500)">
<path d="M50.8299 99.9851C78.4401 99.9851 100.822 77.6027 100.822 49.9925C100.822 22.3824 78.4401 0 50.8299 0C23.2198 0 0.837402 22.3824 0.837402 49.9925C0.837402 77.6027 23.2198 99.9851 50.8299 99.9851Z" fill="#CC2127"/>
<path fill-rule="evenodd" clip-rule="evenodd" d="M37.22 31.9804C37.22 28.9659 50.8299 26.6677 50.8299 26.6677C50.8299 26.6677 64.4398 28.9659 64.4398 31.9804C64.4398 35.9947 61.9626 37.681 61.9626 37.681H39.6823C39.6823 37.681 37.2051 35.9947 37.2051 31.9804H37.22ZM52.7699 32.5027C52.7699 33.5771 51.9044 34.4427 50.8299 34.4427C49.7554 34.4427 48.8899 33.5771 48.8899 32.5027C48.8899 31.4282 49.7554 30.5627 50.8299 30.5627C51.9044 30.5627 52.7699 31.4282 52.7699 32.5027Z" fill="white"/>
<path fill-rule="evenodd" clip-rule="evenodd" d="M60.9627 42.5759C62.7684 41.1731 62.4848 39.6211 62.4848 39.6211H39.1898C39.1898 39.6211 38.9062 41.1731 40.7119 42.5759C40.5478 43.2922 40.4732 44.0383 40.4732 44.7994C40.4732 50.5299 45.1143 55.171 50.8448 55.171C56.5752 55.171 61.2163 50.5299 61.2163 44.7994C61.2163 44.0383 61.1268 43.2922 60.9776 42.5759H60.9627ZM50.8298 44.7994C54.3517 44.7994 56.8289 44.3965 58.5451 43.7996C58.5899 44.1279 58.6048 44.4562 58.6048 44.7994C58.6048 49.0973 55.1277 52.5744 50.8298 52.5744C46.532 52.5744 43.0549 49.0973 43.0549 44.7994C43.0549 44.4562 43.0698 44.1279 43.1146 43.7996C44.8307 44.3816 47.308 44.7994 50.8298 44.7994Z" fill="white"/>
<path fill-rule="evenodd" clip-rule="evenodd" d="M52.7848 57.7825C53.5011 57.7825 54.0831 58.3645 54.0831 59.0808V60.8716C54.0831 61.364 53.7996 61.8117 53.3668 62.0356L52.7848 62.3191L53.531 66.0648L59.0227 57.8272C59.3958 57.8272 59.7539 57.8272 60.0673 57.8272C67.0663 59.424 74.1697 62.6773 74.1697 67.587V73.3473H27.505V67.587C27.505 62.6773 34.9069 59.3942 41.9208 57.7974C41.8909 57.7974 42.1595 57.7974 42.6371 57.7974L48.1885 66.1245L48.8899 62.3191L48.3079 62.0356C47.8751 61.8117 47.5916 61.364 47.5916 60.8716V59.0808C47.5916 58.3645 48.1736 57.7825 48.8899 57.7825H52.7848ZM65.0964 64.6919C65.0964 64.6919 63.3653 63.8263 62.4998 62.9608C61.6342 63.8263 59.9032 64.6919 59.9032 64.6919C59.9032 64.6919 60.8135 68.1541 62.4998 68.1541C64.1861 68.1541 65.0964 64.6919 65.0964 64.6919Z" fill="white"/>
</g>
<defs>
<clipPath id="clip0_56_500">
<rect width="100" height="100" fill="white" transform="translate(0.837402)"/>
</clipPath>
</defs>
</svg>
