<svg width="101" height="100" viewBox="0 0 101 100" fill="none" xmlns="http://www.w3.org/2000/svg">
<g clip-path="url(#clip0_56_479)">
<path d="M50.7134 99.9851C78.3235 99.9851 100.706 77.6027 100.706 49.9925C100.706 22.3824 78.3235 0 50.7134 0C23.1033 0 0.720886 22.3824 0.720886 49.9925C0.720886 77.6027 23.1033 99.9851 50.7134 99.9851Z" fill="#CC2127"/>
<path d="M49.43 37.248V53.365H59.6971V50.5296H52.2505V37.248H49.43Z" fill="#F1F2F2"/>
<path d="M77.0975 50.1715C77.0975 36.6661 66.0992 25.6826 52.5937 25.6826C40.4761 25.6826 30.403 34.5917 28.4481 46.1124H24.5084L31.2984 57.7972L38.2824 46.1124H34.2233C36.0887 37.6062 43.6249 31.3534 52.6236 31.3534C63.0101 31.3534 71.4566 39.7999 71.4566 50.1715C71.4566 59.1403 65.0396 66.6616 56.7125 68.5419V74.3171C68.2183 72.3622 77.1274 62.2742 77.1274 50.1715H77.0975Z" fill="#F1F2F2"/>
<path d="M28.657 71.7504L30.4627 69.8402C31.6267 68.5718 32.4325 67.6167 32.8802 66.9601C33.313 66.3184 33.5369 65.5722 33.5369 64.7365C33.5369 63.483 33.1339 62.4981 32.3132 61.7817C31.4924 61.0654 30.3582 60.7073 28.8808 60.7073C27.5079 60.7073 26.3887 61.14 25.553 61.9907C24.7173 62.8413 24.3143 63.9158 24.3442 65.1544V65.229H27.3885C27.3885 64.5276 27.5228 64.0948 27.7914 63.7068C28.0601 63.3188 28.4182 63.1099 28.8808 63.1099C29.4031 63.1099 29.7911 63.2591 30.0448 63.5576C30.2985 63.8561 30.4328 64.2739 30.4328 64.7813C30.4328 65.1394 30.2985 65.5573 30.0448 66.0498C29.7911 66.5422 29.4181 67.0944 28.8808 67.7212L24.6277 72.2279V74.2873H33.8353V71.8101H28.6868L28.657 71.7802V71.7504Z" fill="#F1F2F2"/>
<path d="M42.3415 60.9759H39.327V60.9312L33.9547 69.5418L34.1039 71.437H39.327V74.2724H42.3415V71.437H43.7592V69.1389H42.3415V60.9908V60.9759ZM39.327 69.124H36.6856L38.9689 65.3186L39.2375 64.9156H39.327V69.124Z" fill="#F1F2F2"/>
<path d="M53.8473 74.2575V68.527C53.8473 68.0943 53.8473 67.7063 53.8174 67.3481C53.698 66.4378 53.4443 65.7215 53.0265 65.2141C52.4445 64.4978 51.6386 64.1396 50.6239 64.1396C50.1015 64.1396 49.6688 64.259 49.236 64.5127C48.8032 64.7664 48.3555 65.1096 48.1765 65.5573V60.8118H44.9829V74.2724H48.1765V67.0347C48.1765 66.8706 48.4749 66.7512 48.6988 66.6616C48.9226 66.5721 49.1614 66.5273 49.4599 66.5273C49.9225 66.5273 50.2806 66.6766 50.5045 66.9601C50.7283 67.2436 50.8477 67.766 50.8477 68.527V74.2724H53.8622L53.8473 74.2575Z" fill="#F1F2F2"/>
</g>
<defs>
<clipPath id="clip0_56_479">
<rect width="100" height="100" fill="white" transform="translate(0.720886)"/>
</clipPath>
</defs>
</svg>
