<svg width="101" height="100" viewBox="0 0 101 100" fill="none" xmlns="http://www.w3.org/2000/svg">
<g clip-path="url(#clip0_56_491)">
<path d="M50.2717 99.9851C77.8818 99.9851 100.264 77.6027 100.264 49.9925C100.264 22.3824 77.8818 0 50.2717 0C22.6615 0 0.279114 22.3824 0.279114 49.9925C0.279114 77.6027 22.6615 99.9851 50.2717 99.9851Z" fill="#CC2127"/>
<path d="M58.36 58.6926C58.4794 57.439 58.4495 56.2004 58.2555 54.9767L61.0611 53.7232C60.7925 52.3652 60.3746 51.0221 59.7926 49.7238C59.2106 48.4254 58.4943 47.2167 57.6586 46.1124L54.8381 47.3659C54.0621 46.4257 53.1518 45.5602 52.152 44.814L53.2563 41.9339C52.1072 41.1579 50.8537 40.5013 49.5255 39.9939C48.1973 39.4865 46.8393 39.1283 45.4664 38.9343L44.3621 41.8145C43.1086 41.6951 41.8699 41.725 40.6462 41.919L39.4076 39.1283C36.6319 39.6805 34.0204 40.8594 31.7968 42.5457L33.0354 45.3214C32.0803 46.0974 31.2297 47.0077 30.4836 48.0076L27.6183 46.9033C26.8423 48.0524 26.1857 49.291 25.6634 50.6191C25.156 51.9473 24.8128 53.3053 24.6188 54.6782L27.4989 55.7826C27.3796 57.0361 27.4094 58.2747 27.6034 59.4984L24.7979 60.752C25.0665 62.11 25.4843 63.4531 26.0663 64.7514C26.6483 66.0497 27.3646 67.2585 28.2003 68.3628L31.0059 67.1092C31.7819 68.0643 32.6922 68.9149 33.707 69.6611L32.6027 72.5412C33.7517 73.3173 35.0053 73.9739 36.3334 74.4813C37.6616 74.9886 39.0196 75.3468 40.3925 75.5408L41.4969 72.6606C42.7504 72.78 43.989 72.7352 45.2127 72.5562L46.4513 75.3468C49.227 74.7946 51.8386 73.6157 54.0621 71.9294L52.8235 69.1537C53.7786 68.3777 54.6292 67.4674 55.3754 66.4675L58.2406 67.5718C59.0166 66.4228 59.6732 65.1841 60.1956 63.856C60.7029 62.5278 61.0462 61.1698 61.2402 59.7969L58.36 58.6926ZM50.7194 60.2297C49.0629 64.5275 44.2427 66.6765 39.9299 65.0349C35.6321 63.3784 33.4831 58.5583 35.1247 54.2604C36.7811 49.9625 41.6013 47.8136 45.8992 49.4551C50.197 51.1116 52.346 55.9318 50.7044 60.2297H50.7194Z" fill="white"/>
<path d="M73.9249 35.7707C73.9249 35.2185 73.8652 34.6664 73.7756 34.1441L75.9246 32.9055C75.4023 30.9207 74.3726 29.1448 72.9549 27.742L70.791 28.9956C69.9702 28.2942 69.0152 27.742 67.9705 27.369V24.8768C67.0155 24.6231 66.0156 24.4739 64.9859 24.4739C63.9562 24.4739 62.9564 24.6231 62.0013 24.8768V27.369C60.9567 27.742 60.0016 28.2942 59.1808 28.9956L57.0169 27.742C55.5993 29.1448 54.5696 30.9207 54.0472 32.9055L56.1962 34.1441C56.0917 34.6813 56.0469 35.2185 56.0469 35.7707C56.0469 36.3229 56.1066 36.875 56.1962 37.3973L54.0472 38.6359C54.5696 40.6207 55.6142 42.3966 57.0169 43.7994L59.1808 42.5458C60.0016 43.2472 60.9567 43.7994 62.0013 44.1724V46.6646C62.9564 46.9183 63.9562 47.0675 64.9859 47.0675C66.0156 47.0675 67.0155 46.9183 67.9705 46.6646V44.1724C69.0152 43.7994 69.9702 43.2472 70.791 42.5458L72.9549 43.7994C74.3726 42.3966 75.4023 40.6207 75.9246 38.6359L73.7756 37.3973C73.8801 36.8601 73.9249 36.3229 73.9249 35.7707ZM64.9859 39.9492C62.6877 39.9492 60.8074 38.0838 60.8074 35.7707C60.8074 33.4576 62.6728 31.5922 64.9859 31.5922C67.299 31.5922 69.1644 33.4576 69.1644 35.7707C69.1644 38.0838 67.299 39.9492 64.9859 39.9492Z" fill="white"/>
</g>
<defs>
<clipPath id="clip0_56_491">
<rect width="100" height="100" fill="white" transform="translate(0.279114)"/>
</clipPath>
</defs>
</svg>
