<svg width="101" height="100" viewBox="0 0 101 100" fill="none" xmlns="http://www.w3.org/2000/svg">
<g clip-path="url(#clip0_56_468)">
<path d="M50.1552 99.9851C77.7653 99.9851 100.148 77.6027 100.148 49.9925C100.148 22.3824 77.7653 0 50.1552 0C22.5451 0 0.162659 22.3824 0.162659 49.9925C0.162659 77.6027 22.5451 99.9851 50.1552 99.9851Z" fill="#CC2127"/>
<path d="M45.6335 65.1245C44.3352 64.7515 43.1861 64.0053 42.3206 62.9607C42.1713 62.7965 41.9475 62.5727 41.8281 62.4682C41.6639 62.4384 41.3505 62.3936 41.1267 62.3787C39.7985 62.3339 38.5151 61.8862 37.4556 61.0953C36.8885 60.6327 36.4259 60.0507 36.0976 59.394L32.128 66.2587C31.561 67.2287 31.9042 68.4822 32.8742 69.0344C33.2771 69.2732 33.7397 69.3478 34.2024 69.2881L37.7391 68.7509L39.0375 72.0936C39.321 72.8249 39.9925 73.3323 40.7835 73.377C40.8432 73.377 40.8879 73.377 40.9476 73.377C41.6789 73.377 42.3504 72.989 42.7086 72.3623L46.8273 65.229C46.8273 65.229 46.7676 65.229 46.7378 65.229C46.3647 65.229 46.0066 65.1842 45.6484 65.1096L45.6335 65.1245Z" fill="white"/>
<path d="M64.2277 59.394C63.8994 60.0507 63.4368 60.6327 62.8697 61.0953C61.7953 61.8862 60.5268 62.3339 59.1986 62.3787C58.9748 62.4085 58.6614 62.4384 58.4972 62.4682C58.3629 62.5727 58.154 62.8114 58.0048 62.9607C57.1542 63.9904 56.0051 64.7515 54.7068 65.1245C54.3486 65.2141 53.9755 65.2439 53.6024 65.2439C53.5726 65.2439 53.5428 65.2439 53.5129 65.2439L57.6317 72.3772C57.9899 73.004 58.6614 73.392 59.3926 73.392C59.4523 73.392 59.4971 73.392 59.5568 73.392C60.3328 73.3323 61.0193 72.8398 61.3028 72.1086L62.6011 68.7658L66.1379 69.303C67.2422 69.4672 68.2868 68.7061 68.451 67.6018C68.5256 67.1392 68.4361 66.6765 68.1973 66.2736L64.2277 59.394Z" fill="white"/>
<path d="M50.1552 34.7261C44.5441 34.7261 39.9776 39.2776 39.9776 44.9037C39.9776 50.5297 44.5292 55.0812 50.1552 55.0812C55.7812 55.0812 60.3328 50.5297 60.3328 44.9037C60.3328 39.2926 55.7812 34.741 50.1552 34.7261ZM55.0649 42.4115L50.9909 48.5151C50.8267 48.7688 50.5432 48.9329 50.2447 48.9628C50.2149 48.9628 50.1701 48.9628 50.1403 48.9628C49.8717 48.9628 49.618 48.8583 49.424 48.6643L46.3647 45.605C45.9767 45.2021 45.9916 44.5604 46.3946 44.1724C46.7826 43.7844 47.4093 43.7844 47.8123 44.1724L49.991 46.3512L53.3786 41.2773C53.692 40.8147 54.3188 40.6804 54.7963 40.9938C55.2589 41.3072 55.3932 41.934 55.0798 42.4115H55.0649Z" fill="white"/>
<path d="M54.2441 63.1398C55.1545 62.8413 55.9454 62.2891 56.5423 61.5579C56.8408 61.1997 57.1989 60.8864 57.6019 60.6327C58.0495 60.4685 58.5122 60.379 58.9897 60.3491C59.9299 60.3342 60.8252 60.0507 61.6012 59.5134C62.2728 58.8568 62.7503 58.0211 62.9742 57.0959C63.0936 56.6333 63.2876 56.1856 63.5562 55.7677C63.8845 55.4245 64.2576 55.1409 64.6754 54.9022C65.5111 54.4694 66.2125 53.8128 66.6751 52.992C67.0034 52.1115 67.078 51.1565 66.884 50.2461C66.7945 49.7537 66.7796 49.2612 66.8393 48.7688C66.9885 48.3211 67.1974 47.9032 67.481 47.5152C68.063 46.7541 68.4062 45.8438 68.4808 44.8887C68.4062 43.9337 68.063 43.0233 67.481 42.2623C67.2124 41.8743 66.9885 41.4564 66.8393 41.0087C66.7796 40.5163 66.7945 40.0238 66.884 39.5313C67.078 38.6061 67.0034 37.6659 66.6751 36.7855C66.2125 35.9647 65.5111 35.3081 64.6754 34.8753C64.2576 34.6515 63.8845 34.353 63.5562 34.0098C63.3025 33.5919 63.1085 33.1592 62.9742 32.6816C62.7503 31.7713 62.2877 30.9207 61.6012 30.279C60.8252 29.7567 59.9299 29.4582 58.9897 29.4433C58.5122 29.4284 58.0495 29.3239 57.6019 29.1597C57.1989 28.9061 56.8557 28.5927 56.5423 28.2345C55.9454 27.4884 55.1545 26.9362 54.2441 26.6527C53.3338 26.5184 52.3937 26.6527 51.558 27.0556C51.1103 27.2496 50.6477 27.369 50.1552 27.4287C49.6777 27.3839 49.2001 27.2496 48.7524 27.0556C47.9167 26.6527 46.9915 26.5184 46.0663 26.6527C45.1559 26.9511 44.365 27.5033 43.7681 28.2345C43.4696 28.5927 43.1115 28.9061 42.7085 29.1597C42.2609 29.3239 41.7982 29.4134 41.3207 29.4433C40.3805 29.4582 39.4851 29.7418 38.7091 30.279C38.0376 30.9356 37.5601 31.7713 37.3362 32.6965C37.2168 33.1592 37.0228 33.6068 36.7542 34.0247C36.4259 34.3679 36.0528 34.6515 35.635 34.8902C34.7993 35.323 34.0979 35.9796 33.6353 36.8004C33.307 37.6809 33.2324 38.6359 33.4264 39.5463C33.5159 40.0387 33.5308 40.5312 33.4711 41.0236C33.3219 41.4713 33.113 41.8892 32.8294 42.2772C32.2474 43.0383 31.9042 43.9486 31.8296 44.9037C31.9042 45.8587 32.2474 46.7691 32.8294 47.5301C33.098 47.9181 33.3219 48.336 33.4711 48.7837C33.5308 49.2761 33.5159 49.7686 33.4264 50.2611C33.2324 51.1863 33.307 52.1265 33.6353 53.0069C34.0979 53.8277 34.7993 54.4843 35.635 54.9171C36.0528 55.1409 36.4259 55.4394 36.7542 55.7826C37.0079 56.2005 37.2019 56.6333 37.3362 57.1108C37.5601 58.0211 38.0227 58.8717 38.7091 59.5134C39.4851 60.0357 40.3805 60.3342 41.3207 60.3491C41.7982 60.364 42.2609 60.4685 42.7085 60.6327C43.1115 60.8864 43.4547 61.1997 43.7681 61.5579C44.365 62.3041 45.1559 62.8562 46.0663 63.1398C46.9766 63.2741 47.9167 63.1398 48.7524 62.7368C49.2001 62.5428 49.6627 62.4234 50.1552 62.3637C50.6327 62.4085 51.1103 62.5428 51.558 62.7368C52.1997 63.0204 52.8861 63.1845 53.5875 63.2144C53.8114 63.2144 54.0203 63.1845 54.2292 63.1398H54.2441ZM50.1701 57.1108C43.4249 57.1108 37.963 51.6489 37.963 44.9037C37.963 38.1584 43.4249 32.6965 50.1701 32.6965C56.9154 32.6965 62.3773 38.1584 62.3773 44.9037C62.3773 51.6489 56.9154 57.1108 50.1701 57.1108Z" fill="white"/>
</g>
<defs>
<clipPath id="clip0_56_468">
<rect width="100" height="100" fill="white" transform="translate(0.162659)"/>
</clipPath>
</defs>
</svg>
