<svg width="35" height="34" viewBox="0 0 35 34" fill="none" xmlns="http://www.w3.org/2000/svg">
<g clip-path="url(#clip0_56_590)">
<path d="M29.6443 16.7818H33.957C34.5264 16.7818 34.9868 16.3215 34.9868 15.7521C34.9868 15.1827 34.5264 14.7224 33.957 14.7224H30.0562C30.5529 11.6211 30.3227 9.53735 30.3106 9.41621C30.2621 9.01643 29.9835 8.67722 29.5958 8.55608C28.033 8.08361 26.6762 7.59903 25.5011 7.12656V4.59462H29.0143C29.4383 5.78185 30.5771 6.64198 31.9097 6.64198C33.6057 6.64198 34.9868 5.26092 34.9868 3.56489C34.9868 1.86885 33.6057 0.487793 31.9097 0.487793C30.5771 0.487793 29.4383 1.34793 29.0143 2.53515H24.4714C23.902 2.53515 23.4416 2.9955 23.4416 3.56489V6.23008C19.6377 4.43713 18.3899 2.97127 18.3051 2.87436C17.8932 2.31709 17.0815 2.30497 16.6696 2.87436C16.5969 2.97127 15.337 4.43713 11.533 6.23008V3.56489C11.533 2.9955 11.0727 2.53515 10.5033 2.53515H5.96035C5.53634 1.34793 4.39758 0.487793 3.06498 0.487793C1.38106 0.499908 0 1.88096 0 3.577C0 5.27304 1.38106 6.65409 3.07709 6.65409C4.40969 6.65409 5.54846 5.79396 5.97247 4.60674H9.48568V7.13867C8.31057 7.61114 6.95374 8.09572 5.39097 8.56819C5.0033 8.68933 4.72467 9.02854 4.67621 9.42832C4.6641 9.53735 4.43392 11.6332 4.93062 14.7345H1.02974C0.460352 14.7345 0 15.1948 0 15.7642C0 16.3336 0.460352 16.794 1.02974 16.794H5.34251C5.56057 17.7268 5.82709 18.6233 6.17841 19.5924H3.36784C2.79846 19.5924 2.33811 20.0528 2.33811 20.6222C2.33811 21.1915 2.79846 21.6519 3.36784 21.6519H7.01432C7.89868 23.6144 8.98899 25.3953 10.261 27.055H5.98458C5.56057 25.8678 4.42181 25.0076 3.08921 25.0076C1.38106 24.9834 0 26.3644 0 28.0605C0 29.7565 1.38106 31.1376 3.07709 31.1376C4.40969 31.1376 5.54846 30.2774 5.97247 29.0902H11.9934C13.435 30.6288 15.0705 32.0462 16.8998 33.3182C17.2511 33.5605 17.7236 33.5605 18.0749 33.3182C19.9042 32.0462 21.5396 30.6288 22.9813 29.0902H29.0022C29.4262 30.2774 30.565 31.1376 31.8976 31.1376C33.5936 31.1376 34.9747 29.7565 34.9747 28.0605C34.9747 26.3644 33.5936 24.9834 31.8976 24.9834C30.565 24.9834 29.4262 25.8435 29.0022 27.0307H24.7258C25.9978 25.3711 27.0881 23.6023 27.9725 21.6277H31.6189C32.1883 21.6277 32.6487 21.1673 32.6487 20.5979C32.6487 20.0285 32.1883 19.5682 31.6189 19.5682H28.8084C29.1597 18.599 29.4141 17.7026 29.6443 16.7697V16.7818ZM23.1267 22.0274C23.1267 23.0572 22.2907 23.8931 21.261 23.8931H13.7137C12.6839 23.8931 11.848 23.0572 11.848 22.0274V16.164C11.848 15.3523 12.3689 14.6618 13.0958 14.3953V13.729C13.0958 11.3061 15.0584 9.34352 17.4813 9.34352C19.9042 9.34352 21.8667 11.3061 21.8667 13.729V14.3953C22.5936 14.6497 23.1145 15.3402 23.1145 16.164V22.0274H23.1267Z" fill="#CC2127"/>
<path d="M13.8954 16.3457V21.8457H21.0793V16.3457H13.8954ZM18.511 19.4591C18.511 20.0285 18.0507 20.4889 17.4813 20.4889C16.9119 20.4889 16.4515 20.0285 16.4515 19.4591V18.7323C16.4515 18.1629 16.9119 17.7025 17.4813 17.7025C18.0507 17.7025 18.511 18.1629 18.511 18.7323V19.4591Z" fill="#CC2127"/>
<path d="M19.8315 13.729V14.2862H15.1553V13.729C15.1553 12.4448 16.2093 11.3909 17.4934 11.3909C18.7775 11.3909 19.8315 12.4448 19.8315 13.729Z" fill="#CC2127"/>
</g>
<defs>
<clipPath id="clip0_56_590">
<rect width="34.9747" height="33" fill="white" transform="translate(0 0.5)"/>
</clipPath>
</defs>
</svg>
