<svg width="25" height="24" viewBox="0 0 25 24" fill="none" xmlns="http://www.w3.org/2000/svg">
<g id="twitter (3) 1" clip-path="url(#clip0_56_142)">
<g id="Group">
<g id="Group_2">
<path id="Vector" d="M12.5 0C5.88323 0 0.5 5.38323 0.5 12C0.5 18.6163 5.88323 24 12.5 24C19.1163 24 24.5 18.6163 24.5 12C24.5 5.38323 19.1173 0 12.5 0ZM17.8533 9.25352C17.8586 9.37243 17.8615 9.49231 17.8615 9.61218C17.8615 13.2621 15.0841 17.4693 10.0025 17.4693C8.44264 17.4693 6.99061 17.0135 5.76867 16.2294C5.98473 16.2551 6.20466 16.2681 6.42749 16.2681C7.72194 16.2681 8.91247 15.8263 9.85793 15.0858C8.64952 15.0636 7.62914 14.265 7.27773 13.1673C7.44594 13.1992 7.61947 13.2171 7.79687 13.2171C8.0487 13.2171 8.29328 13.1842 8.52481 13.1209C7.2613 12.8676 6.30955 11.7515 6.30955 10.4126C6.30955 10.401 6.30955 10.3889 6.31004 10.3778C6.68223 10.5842 7.10807 10.7089 7.5605 10.723C6.81999 10.2285 6.33227 9.38258 6.33227 8.42455C6.33227 7.91799 6.4681 7.44333 6.70591 7.03537C8.06755 8.70684 10.1035 9.80601 12.3985 9.92202C12.3511 9.71949 12.3274 9.50922 12.3274 9.29219C12.3274 7.76718 13.5639 6.53025 15.0889 6.53025C15.8835 6.53025 16.6004 6.8657 17.105 7.40224C17.7348 7.2785 18.3245 7.04938 18.8596 6.73181C18.6518 7.3771 18.2153 7.91799 17.6435 8.26021C18.2027 8.19351 18.7364 8.0456 19.2299 7.82567C18.8616 8.37863 18.3932 8.86538 17.8533 9.25352Z" fill="#C80000"/>
</g>
</g>
</g>
<defs>
<clipPath id="clip0_56_142">
<rect width="24" height="24" fill="white" transform="translate(0.5)"/>
</clipPath>
</defs>
</svg>
